<svg id="alabama" xmlns="http://www.w3.org/2000/svg" preserveAspectRatio="xMinYMin meet" viewBox="0 0 108.4 108.4">
  <path fill="currentColor" transform="translate(21.400000000000006, 0)" d="M4.3 105.9L2.7 90.7L0.0 71.9L0.2 57.8L1.0 26.8L0.8 10.1L1.0 3.7L8.8 3.3L36.6 0.7L45.5 0.0L45.4 2.2L45.6 4.3L46.2 7.7L49.6 15.6L52.0 25.5L53.5 31.6L55.1 36.4L56.6 43.4L58.7 49.7L61.3 53.1L61.8 56.5L63.7 57.3L63.9 59.4L62.1 64.2L61.6 67.4L61.4 69.3L63.0 73.7L63.3 79.0L62.5 81.4L63.1 82.2L64.6 83.0L65.6 85.5H59.3L52.5 86.1L27.0 89.0L16.6 90.4L16.5 94.2L18.3 96.0L20.9 97.9L21.5 105.8L16.0 108.4L13.3 108.1L16.0 106.2V105.2L12.9 99.2L10.6 98.6L9.1 103.0L7.8 105.7L7.2 105.5H4.3Z" />
</svg>