<svg id="california" xmlns="http://www.w3.org/2000/svg" preserveAspectRatio="xMinYMin meet" viewBox="0 0 238.6 238.6">
  <path fill="currentColor" transform="translate(49.5, 0)" d="M122.9 238.6L126.7 238.1L128.2 236.1L128.9 234.2L125.7 234.1L124.6 232.3L125.4 230.6L125.4 224.4L127.6 223.1L130.3 220.5L130.7 215.6L132.3 212.1L134.2 210.0L137.5 208.3L138.8 207.6L139.6 206.1L138.7 205.2L137.7 203.7L136.8 198.4L133.9 193.2L134.0 190.4L131.8 187.2L116.8 164.0L97.4 135.3L75.0 102.3L62.3 82.8L64.1 75.6L70.9 49.7L79.0 18.3L66.6 15.0L53.1 11.6L40.5 7.5L33.0 5.4L21.6 2.4L14.5 0.0L12.9 4.7L12.7 12.1L7.5 23.9L4.4 26.5L4.1 27.6L2.3 28.4L0.8 32.6L0.0 35.8L2.7 40.0L4.3 44.2L5.4 47.8L5.1 54.3L3.3 57.4L2.7 63.2L1.7 66.9L3.5 70.8L6.2 75.3L8.5 80.1L9.8 84.1L9.5 87.3L9.2 87.8V89.9L14.9 96.2L14.4 98.6L13.8 100.9L13.2 102.8L13.4 111.0L15.5 114.7L17.4 117.3L20.1 117.8L21.1 120.5L20.0 124.1L17.9 125.7H16.8L16.0 129.6L16.5 132.5L19.7 136.9L21.3 142.2L22.8 146.9L24.1 150.0L27.5 155.8L29.0 158.4L29.5 161.3L31.1 162.3V164.7L30.3 166.6L28.5 173.7L28.0 175.6L30.4 178.3L34.6 178.8L39.1 180.6L43.0 182.7H45.9L48.8 185.8L51.4 190.6L52.5 192.9L56.4 195.0L61.2 195.8L62.7 197.9L63.3 201.1L61.8 201.7L62.1 202.7L65.3 203.5L68.0 203.7L70.9 208.4L74.8 212.6L75.6 214.9L78.2 219.1L78.5 222.3V231.7L79.0 233.5L89.0 235.0L108.7 237.7L122.9 238.6ZM35.0 188.8L36.3 190.3L36.1 191.6L32.9 191.5L32.3 190.3L31.7 188.8L35.0 188.8ZM36.9 188.8L38.1 188.2L41.7 190.3L44.8 191.5L43.9 192.1L39.4 191.9L37.8 190.3L36.9 188.8ZM57.6 208.6L59.4 210.9L60.2 211.9L61.7 212.5L62.3 211.0L61.3 209.2L58.6 207.2L57.5 207.4V208.6ZM56.2 217.3L58.0 220.5L59.2 222.4L57.7 222.6L56.4 221.4L56.2 217.3Z" />
</svg>