<svg id="florida" xmlns="http://www.w3.org/2000/svg" preserveAspectRatio="xMinYMin meet" viewBox="0 0 159.3 159.3">
  <path fill="currentColor" transform="translate(0, 12.5)" d="M116.7 0.8L119.0 8.1L122.7 17.8L128.0 27.2L131.7 33.5L136.5 39.0L140.5 42.7L142.1 45.6L141.0 46.9L140.3 48.3L143.2 55.7L146.1 58.6L148.7 63.9L152.3 69.7L156.8 77.9L158.1 85.5L158.6 97.5L159.2 99.3L158.9 102.7L156.5 104.0L156.8 105.9L156.2 107.8L156.5 110.2L157.0 112.1L154.3 115.3L151.2 116.8L147.3 117.0L145.8 118.6L143.4 119.6L142.1 119.1L141.0 118.1L140.7 115.2L139.9 111.8L136.5 106.6L132.9 104.3L129.0 104.0L128.2 105.3L125.1 100.9L124.5 97.3L121.9 93.3L120.1 92.2L118.5 94.3L116.7 94.0L114.6 89.0L111.7 85.1L108.8 79.8L106.2 76.7L102.6 73.0L104.7 70.6L107.9 65.1L107.7 63.5L103.2 62.5L101.6 63.1L101.9 63.7L104.5 64.7L103.0 69.2L102.2 69.7L100.4 65.7L99.1 60.9L98.8 58.2L100.3 53.5V44.0L97.3 40.3L96.0 37.2L90.8 35.9L88.9 35.3L87.3 32.7L83.9 31.1L82.8 27.7L80.1 26.7L77.7 23.0L73.5 21.5L70.6 20.0H68.0L64.0 20.8L63.8 22.7L64.6 23.7L64.1 24.8L61.0 24.6L57.3 28.2L53.7 30.1H49.8L46.6 31.4L46.3 28.7L44.7 26.8L41.8 25.7L40.2 24.2L32.1 20.3L24.5 18.5L20.1 19.1L14.1 19.6L8.1 21.7L4.6 22.3L4.4 14.3L1.8 12.4L0.0 10.6L0.3 7.5L10.5 6.2L36.0 3.3L42.8 2.7L48.2 3.0L50.8 6.9L52.3 8.4L60.4 8.9L71.2 8.3L92.7 7.0L98.1 6.3L102.7 6.3L102.9 9.2L106.7 10.0L107.0 5.2L105.4 0.7L106.4 0.0L111.5 0.5L116.7 0.8ZM129.2 133.2L131.6 132.6L132.9 132.4L134.4 130.1L136.7 128.5L138.0 129.0L139.7 129.3L140.1 130.4L136.6 131.6L132.4 133.1L130.1 134.3L129.2 133.2ZM142.7 128.2L143.9 129.3L146.6 127.2L151.9 123.0L155.6 119.1L158.1 112.5L159.1 110.8L159.3 107.4L158.6 107.9L157.6 110.7L156.1 115.3L152.9 120.6L148.5 124.8L145.1 126.7L142.7 128.2Z" />
</svg>