<svg id="georgia" xmlns="http://www.w3.org/2000/svg" preserveAspectRatio="xMinYMin meet" viewBox="0 0 98.1 98.1">
  <path fill="currentColor" transform="translate(2.3999999999999986, 0)" d="M21.8 2.2L17.0 3.0L8.6 4.1L0.0 5.0V7.2L0.2 9.3L0.8 12.7L4.2 20.6L6.6 30.5L8.1 36.6L9.7 41.4L11.2 48.4L13.3 54.7L15.9 58.1L16.4 61.5L18.3 62.3L18.5 64.4L16.7 69.2L16.2 72.4L16.0 74.3L17.6 78.7L17.9 84.0L17.1 86.4L17.7 87.2L19.2 88.0L19.8 91.4L22.4 95.3L23.9 96.8L31.8 97.0L42.6 96.4L64.1 95.1L69.5 94.4L74.1 94.4L74.3 97.3L76.9 98.1L77.2 93.7L75.6 89.2L76.7 87.6L82.5 88.4L87.5 88.7L86.7 82.4L89.0 72.4L90.5 68.2L90.0 65.6L93.3 59.4L92.8 58.0L90.9 58.7L88.3 57.4L87.7 55.3L86.4 51.7L84.1 49.6L81.5 49.0L79.9 44.2L77.0 37.9L72.8 36.0L70.7 34.1L69.4 31.5L67.3 29.6L65.0 28.3L62.7 25.4L59.6 23.1L55.1 21.3L54.6 19.8L52.2 16.9L51.7 15.4L48.3 10.5L44.9 10.7L40.8 7.7L39.5 6.4L39.2 4.6L40.0 2.7L42.4 1.5L41.3 0.3L41.4 0.0L35.6 1.0L28.6 1.8L21.8 2.2Z" />
</svg>