<svg id="idaho" xmlns="http://www.w3.org/2000/svg" preserveAspectRatio="xMinYMin meet" viewBox="0 0 167 167">
  <path fill="currentColor" transform="translate(31.549999999999997, 0)" d="M21.1 153.3L25.5 135.8L29.8 118.1L31.2 113.9L33.7 108.0L32.4 105.7L29.9 105.8L29.1 104.8L29.6 103.7L29.9 100.6L34.4 95.1L36.2 94.6L37.3 93.5L37.9 90.3L38.8 89.6L42.7 83.8L46.6 79.5L46.8 75.7L43.4 73.1L42.1 68.7L42.5 59.0L46.2 42.5L50.7 21.7L54.5 8.2L55.3 4.4L68.3 6.9L64.1 28.4L67.0 36.1L65.9 40.7L67.9 45.3L71.1 47.0L75.6 56.8L78.3 60.6L78.9 61.7L82.3 62.8L82.8 65.3L75.9 82.1L76.2 85.4L78.9 88.3L80.8 88.8L85.6 85.2L86.0 84.7L86.2 85.5L86.5 89.6L89.1 102.5L92.6 105.2L93.0 106.0L95.1 108.4L94.3 111.2L95.0 115.0L96.9 115.9L99.0 114.3L101.6 113.8L105.0 115.4L107.5 114.8L111.3 114.6L115.3 116.2L118.0 115.9L118.9 113.6L121.4 112.0L122.1 113.7L122.7 115.9L125.0 118.4L121.2 142.4L116.1 171.4L111.9 171.1L103.7 169.6L93.9 167.8L81.7 165.4L69.2 162.9L60.7 161.1L51.4 159.4L21.1 153.3Z" />
</svg>