<svg id="illinois" xmlns="http://www.w3.org/2000/svg" preserveAspectRatio="xMinYMin meet" viewBox="0 0 123.9 123.9">
  <path fill="currentColor" transform="translate(27.35, 0)" d="M62.1 103.4V99.8L62.4 94.9L64.8 91.8L66.6 88.0L69.2 84.1L68.8 78.8L66.8 75.3L66.7 72.0L67.4 66.7L66.6 59.5L65.5 43.7L64.2 28.7L63.3 17.1L63.0 16.2L62.2 13.6L60.9 9.9L59.3 8.1L57.8 5.5L57.6 0.0L47.7 1.3L20.5 3.0L11.8 2.6L12.0 5.0L14.3 5.7L15.2 6.8L15.7 8.6L19.6 12.0L20.3 14.3L19.6 17.7L17.8 21.4L17.1 23.9L14.8 25.7L13.0 26.4L7.7 27.8L7.0 29.6L6.3 31.8L7.0 33.2L8.8 34.8L8.6 38.9L6.8 40.5L6.1 42.1V44.8L4.3 45.3L2.7 46.4L2.5 47.8L2.7 49.9L1.0 51.2L0.0 54.0L0.5 57.7L2.8 65.0L10.1 72.5L15.6 76.2L15.4 80.5L16.3 81.9L22.7 82.4L25.4 83.8L24.7 87.5L22.4 93.4L21.7 96.6L24.0 100.5L30.4 105.8L35.0 106.5L37.1 111.5L39.2 114.7L38.3 117.7L39.9 121.8L41.7 123.9L43.6 123.1L44.3 120.9L46.3 119.5L49.5 118.4L52.6 119.6L55.5 120.7L56.3 120.5L56.2 119.3L55.1 116.5L55.5 114.1L57.8 112.5L60.2 111.5L61.4 111.1L60.8 109.8L60.0 107.6L61.2 106.3L62.1 103.4Z" />
</svg>