<svg id="indiana" xmlns="http://www.w3.org/2000/svg" preserveAspectRatio="xMinYMin meet" viewBox="0 0 90.6 90.6">
  <path fill="currentColor" transform="translate(19.349999999999998, 0)" d="M0.0 90.6L0.1 87.7L0.6 83.2L2.9 80.3L4.7 76.4L7.3 72.2L6.8 66.4L5.0 63.7L4.7 60.5L5.5 55.0L5.0 48.0L3.7 32.0L2.4 16.6L1.4 4.9L4.5 5.8L6.0 6.8L7.1 6.5L9.2 4.6L12.0 3.0L17.1 2.8L39.1 0.5L44.7 0.0L46.2 16.0L50.5 52.8L51.1 58.6L50.6 60.7L51.8 62.5L51.9 63.9L49.4 65.5L45.9 67.1L42.7 67.7L42.1 72.6L37.5 75.9L34.7 79.9L35.0 82.3L34.4 83.8H31.1L29.5 82.2L27.0 83.5L24.3 85.0L24.5 88.1L23.3 88.4L22.8 87.4L20.6 85.9L17.3 87.2L15.7 90.2L14.3 89.4L12.8 87.8L8.3 88.3L2.7 89.3L0.0 90.6Z" />
</svg>