<svg id="kentucky" xmlns="http://www.w3.org/2000/svg" preserveAspectRatio="xMinYMin meet" viewBox="0 0 127.7 127.7">
  <path fill="currentColor" transform="translate(0, 31.700000000000003)" d="M127.7 30.0L125.4 32.7L121.2 36.3L116.9 42.2L115.1 44.0V46.1L111.2 48.2L105.5 51.6L102.0 52.0L50.1 56.9L34.3 58.7L29.7 59.2L25.8 59.2L25.6 63.4L17.4 63.5L10.4 64.1L0.0 64.3L1.9 64.1L4.1 62.3L6.2 61.2L6.4 58.0L7.3 56.2L5.7 53.7L6.5 51.8L8.8 50.0L10.9 49.4L13.6 50.7L17.2 52.0L18.3 51.7L18.5 49.4L17.2 47.0L17.5 44.7L19.4 43.2L22.0 42.6L23.6 42.0L22.8 40.2L22.2 38.3L23.3 37.5L24.4 34.2L27.4 32.5L33.2 31.5L36.8 31.0L38.3 32.9L40.1 33.7L41.9 30.5L44.8 29.0L46.7 30.6L47.5 31.7L49.6 31.2L49.4 27.8L52.3 26.2L53.4 25.4L54.5 27.0H59.2L60.0 24.9L59.7 22.6L62.6 19.0L67.3 15.1L67.8 10.6L70.5 10.3L74.4 8.5L77.1 6.6L76.8 4.7L75.3 3.2L75.9 1.0L80.0 0.8L82.4 0.0L85.3 1.6L86.9 6.0L92.7 6.3L94.5 8.1L96.6 8.3L99.0 6.8L102.1 7.3L103.4 8.8L106.1 6.2L107.9 4.9H109.5L110.1 7.6L111.9 8.6L114.3 10.8L114.5 16.3L115.3 17.9L117.9 19.4L118.5 21.7L121.4 25.4L124.0 28.1L127.7 30.0Z" />
</svg>