<svg id="massachusetts" xmlns="http://www.w3.org/2000/svg" preserveAspectRatio="xMinYMin meet" viewBox="0 0 61.3 61.3">
  <path fill="currentColor" transform="translate(0, 14.349999999999998)" d="M56.6 30.9L58.8 30.2L59.3 28.5L60.3 28.6L61.3 30.9L60.0 31.4L56.1 31.5L56.6 30.9ZM47.2 31.7L49.5 29.1H51.1L52.9 30.6L50.5 31.6L48.3 32.6L47.2 31.7ZM12.4 9.7L29.9 5.5L32.2 4.9L34.3 1.7L38.0 0.0L40.9 4.4L38.5 9.6L38.2 11.1L40.1 13.7L41.2 12.9H43.0L45.3 15.5L49.2 21.5L52.8 22.0L55.1 21.0L56.9 19.2L56.1 16.5L54.0 14.9L52.5 15.7L51.5 14.4L52.0 13.9L54.1 13.7L55.9 14.5L57.8 16.9L58.8 19.8L59.1 22.2L54.9 23.7L51.0 25.6L47.1 30.1L45.2 31.6V30.6L47.6 29.1L48.1 27.3L47.3 24.2L44.4 25.7L43.6 27.2L44.1 29.5L42.0 30.5L39.3 26.0L35.9 21.6L33.8 19.8L27.3 21.7L22.2 22.8L0.4 27.6L0.0 22.7L0.6 12.1L5.8 11.2L12.4 9.7Z" />
</svg>