<svg id="michigan" xmlns="http://www.w3.org/2000/svg" preserveAspectRatio="xMinYMin meet" viewBox="0 0 137.3 137.3">
  <path fill="currentColor" transform="translate(3.25, 0)" d="M14.1 7.4L15.9 5.3L18.1 4.5L23.5 0.6L25.8 0.0L26.3 0.5L21.2 5.6L17.9 7.5L15.8 8.4L14.1 7.4ZM100.3 39.5L100.9 42.0L104.1 42.2L105.4 41.0L103.2 41.2L101.6 41.4L101.3 42.5L100.3 39.5ZM130.4 102.5L127.2 94.3L124.9 85.2L122.5 82.0L119.9 80.2L118.3 81.3L114.4 83.1L112.5 88.1L109.8 91.8L108.7 92.4L107.2 91.8L110.6 90.5L111.4 87.1L112.0 84.5L114.4 82.9L114.1 72.9L112.5 70.6L111.2 69.8L110.4 67.7L111.2 66.9L112.8 67.2L113.0 65.6L108.5 56.3L107.2 53.7H104.6L100.1 52.2L94.6 48.8H91.9L91.3 49.4L90.3 48.9L87.2 46.6L84.3 48.4L81.4 50.7L81.7 54.3L82.7 54.6L84.8 55.1L85.3 55.9L82.7 56.7L80.1 57.0L78.6 58.8L78.3 60.9L78.6 62.5L78.9 68.0L75.3 70.1L74.7 69.9V65.7L76.0 63.3L76.6 60.9L75.8 60.1L73.9 60.9L72.9 65.1L70.2 66.2L68.4 68.1L68.2 69.1L68.8 69.9L68.2 72.5L65.9 73.0V74.1L66.7 76.5L65.6 82.6L64.0 86.6L64.6 91.3L65.1 92.4L64.3 94.8L64.0 95.6L63.7 98.3L67.3 104.3L70.2 110.8L71.7 115.6L70.9 120.3L69.9 126.3L67.5 131.5L67.2 134.2L63.9 137.3L68.3 137.1L89.7 134.8L97.0 133.8L97.1 135.5L104.0 134.3L114.3 132.8L118.2 132.3L118.3 131.7L118.5 130.2L120.6 126.5L122.6 124.8L122.4 119.7L124.0 118.1L125.1 117.8L125.3 114.2L126.8 111.2L127.9 111.8L128.1 112.4L128.9 112.6L130.8 111.6L130.4 102.5ZM0.0 36.5L0.7 35.9L3.4 35.1L7.0 32.8V31.8L7.6 31.2L13.6 30.2L16.0 28.3L20.4 26.2L20.6 24.9L22.5 22.0L24.3 21.2L25.6 19.4L27.9 17.1L32.3 14.7L37.0 14.2L38.1 15.3L37.8 16.3L34.1 17.3L32.6 20.4L30.3 21.2L29.8 23.6L27.4 26.8L27.1 29.4L27.9 29.9L28.9 28.8L32.5 25.9L33.8 27.2H36.1L39.3 28.2L40.8 29.3L42.3 32.4L45.0 35.1L48.9 34.9L50.4 33.9L52.0 35.2L53.6 35.7L54.9 34.9H56.0L57.6 33.9L61.6 30.3L65.0 29.2L71.6 28.9L76.1 27.0L78.7 25.7L80.2 25.9V31.6L80.7 31.9L83.6 32.7L85.5 32.2L91.6 30.6L92.7 29.5L94.2 30.0V37.0L97.4 40.1L98.7 40.7L100.0 41.7L98.7 42.0L97.9 41.7L94.2 41.2L92.1 41.8L89.8 41.6L86.6 43.1H84.8L79.0 41.8L73.8 42.0L71.9 44.6L64.9 45.2L62.5 46.0L61.4 49.1L60.1 50.2L59.6 50.0L58.1 48.4L53.6 50.8H53.0L51.9 49.2L51.1 49.4L49.2 53.8L48.2 57.8L45.0 64.8L43.8 63.8L42.4 62.8L40.5 52.5L37.0 51.1L34.9 48.8L22.8 46.1L19.9 45.1L11.7 42.9L3.8 41.8L0.0 36.5Z" />
</svg>