<svg id="minnesota" xmlns="http://www.w3.org/2000/svg" preserveAspectRatio="xMinYMin meet" viewBox="0 0 127.3 127.3">
  <path fill="currentColor" transform="translate(6.399999999999999, 0)" d="M9.1 75.6L8.6 67.1L6.8 59.8L5.0 46.3L4.5 36.5L2.7 33.1L1.1 28.1V17.8L1.8 13.9L0.0 8.4L30.1 8.4L30.4 0.2L31.0 0.0L33.3 0.5L35.2 1.3L36.0 6.8L37.5 12.9L39.1 14.5H43.9L44.2 16.0L50.5 16.3V18.4H55.3L55.6 17.1L56.7 16.0L59.0 15.4L60.3 16.4H63.2L67.1 19.0L72.4 21.4L74.8 21.9L75.3 20.9L76.8 20.4L77.3 23.3L79.9 24.6L80.4 24.1L81.7 24.3V26.4L84.3 27.4H87.4L89.0 26.6L92.2 23.4L94.8 22.9L95.6 24.7L96.1 26.0H97.1L98.1 25.2L107.0 24.9L108.8 28.0H109.4L110.1 26.9L114.5 26.5L113.9 28.8L110.0 30.6L100.8 34.7L96.0 36.7L92.9 39.3L90.5 42.9L88.2 46.8L86.4 47.6L81.9 52.6L80.6 52.8L76.8 55.7L74.0 58.9L73.8 61.9L74.0 69.7L72.4 71.3L67.2 75.1L65.4 80.8L67.9 84.4L68.4 86.9L67.3 89.9L67.1 93.6L67.6 100.7L71.0 104.8H74.0L76.5 107.1L79.7 108.5L83.4 113.5L90.5 118.5L92.3 120.6L92.5 126.1L71.9 126.8L11.7 127.3L11.4 91.6L10.9 88.6L6.8 85.2L5.7 83.4V81.8L7.8 80.2L9.2 78.8L9.1 75.6Z" />
</svg>