<svg id="mississippi" xmlns="http://www.w3.org/2000/svg" preserveAspectRatio="xMinYMin meet" viewBox="0 0 108.5 108.5">
  <path fill="currentColor" transform="translate(23.6, 0)" d="M61.3 102.2L61.0 103.5H55.8L54.3 102.7L52.2 102.4L45.4 104.3L43.6 103.5L41.0 107.7L39.9 108.5L38.8 106.0L37.7 102.1L34.3 98.9L35.4 91.4L34.7 90.5L32.9 90.7L24.7 91.4L0.5 92.1L0.0 90.5L0.7 82.5L4.1 76.3L9.4 67.2L8.5 65.1H9.6L10.3 61.9L8.0 60.1L8.2 58.3L6.1 53.7L5.8 48.4L7.2 45.7L6.8 41.4L5.4 38.4L6.8 37.0L5.4 34.9L5.9 33.1L6.8 26.9L9.8 24.2L9.1 22.1L12.8 16.8L15.5 15.9V13.4L14.8 12.0L17.5 6.7L20.2 5.6L20.3 2.2L29.0 2.1L53.1 0.2L57.7 0.0L57.7 6.4L57.9 23.1L57.1 54.1L56.9 68.2L59.6 87.0L61.3 102.2Z" />
</svg>