<svg id="montana" xmlns="http://www.w3.org/2000/svg" preserveAspectRatio="xMinYMin meet" viewBox="0 0 177.1 177.1">
  <path fill="currentColor" transform="translate(0, 32.15)" d="M171.9 91.9L172.5 80.7L174.8 55.9L175.7 41.3L145.0 38.5L117.2 19.6L87.9 15.6L55.6 10.3L37.2 6.9L4.5 0.0L0.0 21.3L3.4 28.8L2.0 33.4L3.8 38.0L7.0 39.4L11.6 50.2L14.3 53.4L14.8 54.5L18.2 55.6L18.7 57.7L11.6 75.3V77.8L14.1 81.0H15.0L19.8 78.0L20.5 76.9L22.1 77.6L21.9 82.9L24.6 95.5L27.6 98.0L28.5 98.7L30.3 101.0L29.8 104.4L30.5 107.8L31.6 108.7L33.9 106.4H36.6L39.8 108.0L42.3 107.1H46.4L50.1 108.7L52.8 108.2L53.3 105.2L56.3 104.5L57.7 105.9L58.2 109.1L60.0 110.5L61.5 98.9L82.2 101.9L110.4 105.9L127.0 107.8L158.4 111.3L169.4 112.8L170.5 97.4L171.9 91.9Z" />
</svg>