<svg id="nebraska" xmlns="http://www.w3.org/2000/svg" preserveAspectRatio="xMinYMin meet" viewBox="0 0 142.8 142.8">
  <path fill="currentColor" transform="translate(0, 36.00000000000001)" d="M136.2 59.1L137.6 61.8L137.7 63.9L140.1 67.6L142.8 70.8H137.8L94.3 69.9L53.5 69.0L32.3 68.0L33.4 46.7L0.0 44.0L4.3 0.0L19.8 1.0L40.0 2.1L57.8 3.2L81.6 4.3L92.3 3.8L94.4 6.1L99.2 9.1L100.3 10.0L104.6 8.6L108.5 8.1L111.2 7.9L113.0 9.3L118.0 10.9L121.0 12.5L121.5 14.1L122.4 16.2H124.2L125.0 16.2L126.0 21.4L128.7 29.4L129.9 34.0L132.0 37.8L132.5 42.7L133.9 47.0L134.4 53.5" />
</svg>