<svg id="new-jersey" xmlns="http://www.w3.org/2000/svg" preserveAspectRatio="xMinYMin meet" viewBox="0 0 53.6 53.6">
  <path fill="currentColor" transform="translate(15.05, 0)" d="M5.4 0.0L3.3 2.4V5.5L1.4 8.6L1.2 10.2L2.5 11.5L2.3 13.9L0.0 15.0L0.8 17.7L1.0 18.8L3.7 19.1L4.7 21.7L8.3 24.1L10.7 25.7V26.5L7.5 29.6L5.9 31.9L4.4 34.6L2.1 35.9L0.9 36.6L0.7 37.8L0.1 40.4L1.2 42.6L4.4 45.5L9.2 47.8L13.2 48.4L13.4 49.9L12.6 50.9L12.9 53.6H13.7L15.8 51.2L16.6 46.4L19.3 42.4L22.4 35.9L23.5 30.4L22.9 29.3L22.7 19.9L21.1 16.5L20.0 17.3L17.3 17.6L16.8 17.1L17.9 16.1L20.0 14.2L20.1 13.1L19.7 9.7L20.2 7.0L20.0 4.9L17.4 3.8L12.9 2.8L9.0 1.7L5.4 0.0Z" />
</svg>