<svg id="ohio" xmlns="http://www.w3.org/2000/svg" preserveAspectRatio="xMinYMin meet" viewBox="0 0 82.2 82.2">
  <path fill="currentColor" transform="translate(5.100000000000001, 0)" d="M67.6 0.0L61.5 4.1L57.6 6.4L54.2 10.1L50.2 14.0L47.0 14.8L44.1 15.3L38.6 17.9L36.5 18.1L33.1 15.0L27.9 15.6L25.3 14.1L22.9 12.7L18.0 13.4L7.8 15.0L0.0 16.2L1.3 30.8L3.1 44.5L5.7 67.9L6.3 72.7L10.4 72.6L12.8 71.8L16.2 73.3L18.3 77.7L23.4 77.7L25.3 79.8L27.1 79.7L29.6 78.4L32.1 78.8L34.1 80.3L35.8 78.2L38.1 76.9L40.2 76.2L40.8 78.9L42.6 79.9L46.1 82.2L48.3 82.1L49.4 81.0L49.3 79.6L50.9 78.1L51.1 73.1L52.1 69.2L53.6 67.8L55.1 68.7L55.9 69.9L57.1 69.7L56.7 67.3L56.1 66.7V64.3L57.1 63.0L59.4 59.6L60.7 58.1L62.8 58.6L65.1 57.0L68.2 53.6L70.5 49.7L70.7 44.3L71.2 39.3V34.6L70.1 31.5L71.1 30.0L72.0 29.0L70.6 19.2L67.6 0.0Z" />
</svg>