<svg id="tennessee" xmlns="http://www.w3.org/2000/svg" preserveAspectRatio="xMinYMin meet" viewBox="0 0 143.9 143.9">
  <path fill="currentColor" transform="translate(0, 46.6)" d="M112.2 5.1L60.3 10.1L44.5 11.9L39.9 12.4L36.0 12.4V16.3L27.6 16.8L20.6 17.4L9.5 17.5L9.2 23.3L7.1 29.6L6.1 32.6L4.8 37.0L4.5 39.6L0.5 41.9L2.0 45.5L1.0 49.9L0.0 50.7L7.3 50.5L31.4 48.6L36.7 48.4L44.8 47.9L72.6 45.3L82.8 44.5L91.2 43.5L99.6 42.4L104.4 41.6L104.3 37.1L106.1 35.6L108.8 35.0L109.4 31.3L113.6 28.6L117.5 27.1L121.7 23.5L126.1 21.4L127.0 17.9L131.3 14.0L131.9 13.8L134.2 10.2L136.3 9.6L138.6 9.9L140.2 6.3L142.3 4.1L142.9 3.1L143.1 -0.8L141.6 -1.1L139.2 0.8L131.3 1.0L119.3 2.9L112.2 5.1Z" />
</svg>