<svg id="texas" xmlns="http://www.w3.org/2000/svg" preserveAspectRatio="xMinYMin meet" viewBox="0 0 243.2 243.2">
  <path fill="currentColor" transform="translate(0, 2.3999999999999915)" d="M74.5 0.2L97.2 1.3L128.3 2.4L126.0 25.9L125.7 44.1L125.8 46.2L130.1 50.0L131.8 50.8L133.6 51.1L134.3 49.8L135.2 50.7L136.9 51.2L138.5 50.5L139.6 50.9L139.3 54.3L143.6 55.3L146.3 56.1L150.3 56.6L152.5 58.4L155.7 56.8L158.5 57.2L160.5 60.0L161.6 60.3L161.4 62.3L164.5 63.5L167.3 61.7L168.8 62.1L171.2 62.3L171.6 64.2L176.2 66.2L178.9 66.0L180.9 61.9H181.2L182.3 63.8L186.7 64.8L190.0 66.0L193.3 66.8L195.4 66.0L196.2 63.5H199.9L201.8 64.3L204.9 62.7H205.6L206.0 63.8H210.3L212.7 62.5L214.4 62.8L215.8 64.7L218.7 66.4L222.2 67.5L224.9 68.9L227.3 70.5L230.6 69.6L232.5 70.6L233.0 80.7L233.3 90.4L234.0 99.9L234.5 103.9L237.2 108.5L238.3 112.6L242.2 118.9L242.7 121.8L243.2 122.8L242.5 130.3L239.8 134.7L240.8 137.6L240.4 140.1L239.6 147.4L238.2 150.1L238.8 154.5L233.1 156.1L223.2 160.6L222.2 162.5L219.6 164.4L217.5 165.9L216.2 166.7L210.5 172.0L207.8 174.1L202.5 177.3L196.8 179.7L190.5 183.1L188.7 184.6L182.9 188.2L179.5 188.8L175.6 194.3L171.6 194.6L170.6 196.5L172.9 198.4L171.4 203.9L170.1 208.4L169.0 212.3L168.2 216.8L169.0 219.2L170.8 226.2L171.8 232.3L173.6 235.0L172.6 236.5L169.5 238.4L163.8 234.5L158.3 233.4L157.0 233.9L153.8 233.3L149.6 230.2L144.4 229.1L136.8 225.7L134.7 221.8L133.4 215.3L130.2 213.4L129.6 211.1L130.2 210.5L130.5 207.1L129.2 206.5L128.6 205.5L129.9 201.1L128.3 198.8L125.1 197.5L121.7 193.1L118.1 186.5L113.9 183.9L114.1 182.0L108.8 169.7L108.0 165.5L106.2 163.6L106.0 162.1L100.0 156.8L97.4 153.7V152.6L94.8 150.5L88.0 149.4L80.6 148.8L77.5 146.5L73.0 148.3L69.4 149.8L67.1 153.0L66.1 156.7L61.7 162.8L59.3 165.2L56.7 164.2L54.9 163.1L53.0 162.5L49.1 160.2V159.6L47.3 157.7L42.1 155.6L34.7 147.8L32.4 143.1V135.0L29.2 128.5L28.7 125.8L27.1 124.8L26.0 122.7L21.0 120.6L19.7 119.0L12.6 111.1L11.3 107.9L6.6 105.6L5.1 101.2L2.5 98.3L0.6 97.8L0.0 93.1L8.0 93.8L37.0 96.5L66.0 98.1L68.3 74.3L72.2 18.7L73.8 0.0L75.2 0.0M174.6 234.1L174.0 227.0L171.3 219.8L170.7 212.8L172.2 204.6L175.5 197.7L179.0 192.3L182.2 188.7L182.8 188.9L178.0 195.5L173.6 202.0L171.6 208.6L171.3 213.8L172.2 219.9L174.8 227.1L175.3 232.3L175.5 233.8L174.6 234.1Z" />
</svg>