<svg id="virginia" xmlns="http://www.w3.org/2000/svg" preserveAspectRatio="xMinYMin meet" viewBox="0 0 133.6 133.6">
  <path fill="currentColor" transform="translate(0, 29.949999999999996)" d="M127.2 23.8L127.1 21.9L133.6 19.4L132.8 22.6L129.9 26.4L129.5 31.0L130.0 34.4L128.2 39.4L126.0 41.3L124.5 36.7L124.9 31.3L126.5 27.1L127.2 23.8ZM129.5 52.1L71.3 64.7L33.9 70.0L27.2 69.6L24.6 71.5L17.3 71.7L8.9 72.7L0.0 73.7L8.5 68.8L8.5 66.7L10.0 64.6L20.6 53.1L24.5 57.6L28.3 58.6L30.8 57.5L33.0 56.2L35.5 57.5L39.4 56.1L41.3 51.5L43.9 52.0L46.8 49.9L48.6 50.4L51.4 46.7L51.7 44.6L50.7 43.3L51.7 41.4L57.0 29.1L57.6 23.4L58.8 22.9L61.0 25.3L64.9 25.0L66.8 17.4L69.6 16.8L70.6 14.1L73.2 11.8L74.5 9.5L76.0 6.1L76.1 1.0L85.9 4.8L90.0 6.2L89.5 8.8L97.7 11.7L99.0 13.5L98.1 17.2L96.8 18.5L96.3 20.2L96.8 22.6L98.8 23.9L102.7 25.3L105.6 26.3L110.5 27.2L112.7 29.3L115.9 29.7L116.8 30.9L116.4 35.6L117.8 36.7L117.3 38.6L118.5 39.4L118.3 40.8L115.6 40.7L115.7 42.3L118.0 43.8L118.1 45.2L119.9 47.0L120.4 49.5L117.8 50.9L119.4 52.4L125.2 50.7L129.5 52.1Z" />
</svg>