<svg id="washington" xmlns="http://www.w3.org/2000/svg" preserveAspectRatio="xMinYMin meet" viewBox="0 0 116.3 116.3">
  <path fill="currentColor" transform="translate(0, 15.699999999999996)" d="M35.4 0.0L39.8 1.5L49.5 4.2L58.1 6.1L78.1 11.8L101.1 17.5L116.3 20.9L115.3 24.8L111.2 38.6L106.7 59.4L103.5 75.5L103.1 84.9L89.9 81.0L74.3 77.6L60.6 78.2L59.0 76.7L53.7 78.6L49.7 78.3L47.0 76.5L45.4 77.0L41.2 76.8L39.3 75.4L34.5 73.7L33.1 73.5L28.1 72.2L26.3 73.7L20.6 73.4L15.8 69.6L16.0 68.8L16.1 60.9L14.0 57.0L9.9 56.3L9.5 53.9L7.0 53.3L4.1 52.8L2.3 53.8L0.0 50.9L0.3 48.0L3.0 47.7L4.6 43.7L2.0 42.6L2.2 38.9L6.6 38.3L3.9 35.6L2.4 28.5L3.0 25.6V17.7L1.2 14.5L3.5 5.1L5.6 5.6L8.0 8.5L10.7 11.1L13.9 13.0L18.4 15.1L21.5 15.7L24.4 17.2L27.8 18.2L30.1 18.0V15.6L31.4 14.5L33.5 13.2L33.8 14.3L34.1 16.1L31.8 16.6L31.5 18.7L33.3 20.2L34.4 22.6L35.0 24.5L36.5 24.3L36.7 23.0L35.7 21.7L35.2 18.5L36.0 16.7L35.4 15.2V12.6L37.2 9.0L36.1 6.4L33.7 1.6L34.0 0.8L35.4 0.0ZM25.9 5.9L27.9 5.7L28.4 7.1L29.9 5.5H32.2L33.0 7.0L31.5 8.7L32.1 9.5L31.4 11.5L30.0 11.9L28.3 11.3L28.0 12.8L27.3 13.4L25.8 11.1L25.9 5.9Z" />
</svg>