<svg id="wisconsin" xmlns="http://www.w3.org/2000/svg" preserveAspectRatio="xMinYMin meet" viewBox="0 0 96.1 96.1">
  <path fill="currentColor" transform="translate(2.3499999999999943, 0)" d="M83.5 93.3L83.9 90.3L82.3 85.8L81.7 79.7L80.6 77.3L81.6 74.2L82.4 71.3L83.9 68.7L83.3 65.3L82.7 61.7L83.2 59.9L85.1 57.5L85.3 54.8L84.5 53.5L85.1 50.9L85.6 47.7L88.3 42.0L91.2 35.2L91.4 32.9L91.1 31.9L90.3 32.4L86.1 38.7L83.4 42.7L81.5 44.5L80.7 46.8L79.2 47.6L78.1 49.5L76.6 49.2L76.4 47.4L77.7 45.0L79.8 40.3L81.6 38.7L82.7 36.4L81.1 35.5L79.7 34.1L78.1 23.8L74.4 22.7L73.0 20.4L60.4 17.7L57.9 16.6L49.7 14.3L41.5 13.2L37.3 7.8L36.8 9.1L35.7 8.9L35.1 7.8L32.4 7.0L31.3 7.2L29.5 8.2L28.5 7.6L29.1 5.7L31.0 2.6L32.1 1.5L30.2 0.0L28.1 0.8L25.2 2.7L17.8 5.9L14.9 6.5L12.0 6.0L11.0 5.1L8.9 7.9L8.7 10.6V19.1L7.6 20.7L2.3 24.6L0.0 30.5L0.5 30.7L3.0 32.8L3.7 36.0L1.9 39.2V43.1L2.4 49.7L5.4 52.7H8.8L10.6 55.9L14.0 56.4L17.9 62.1L25.0 66.2L27.1 68.9L28.0 76.3L28.7 79.6L31.0 81.2L31.2 82.6L29.1 86.0L29.3 89.2L31.8 93.1L34.3 94.2L37.3 94.7L38.6 96.1L47.8 96.1L73.9 94.6L83.5 93.3Z" />
</svg>