<?xml version="1.0" encoding="UTF-8" standalone="no"?>
<!-- Created with Inkscape (http://www.inkscape.org/) -->

<svg
   width="942mm"
   height="592mm"
   viewBox="0 0 37.086616 23.307087"
   version="1.1"
   id="svg213"
   xmlns="http://www.w3.org/2000/svg"
   xmlns:svg="http://www.w3.org/2000/svg">
  <defs
     id="defs210" />
  <g
     id="layer1">
    <g
       id="g117"
       transform="matrix(0.03999517,0,0,0.03999517,-6.9591596,-4.2554861)">
      <g
         id="g5">
        <path
           id="HI"
           class="state"
           fill="#000000"
           d="m 407.1,619.3 1.9,-3.6 2.3,-0.3 0.3,0.8 -2.1,3.1 z m 10.2,-3.7 6.1,2.6 2.1,-0.3 1.6,-3.9 -0.6,-3.4 -4.2,-0.5 -4,1.8 z m 30.7,10 3.7,5.5 2.4,-0.3 1.1,-0.5 1.5,1.3 3.7,-0.2 1,-1.5 -2.9,-1.8 -1.9,-3.7 -2.1,-3.6 -5.8,2.9 z m 20.2,8.9 1.3,-1.9 4.7,1 0.6,-0.5 6.1,0.6 -0.3,1.3 -2.6,1.5 -4.4,-0.3 z m 5.3,5.2 1.9,3.9 3.1,-1.1 0.3,-1.6 -1.6,-2.1 -3.7,-0.3 z m 7,-1.2 2.3,-2.9 4.7,2.4 4.4,1.1 4.4,2.7 v 1.9 l -3.6,1.8 -4.8,1 -2.4,-1.5 z m 16.6,15.6 1.6,-1.3 3.4,1.6 7.6,3.6 3.4,2.1 1.6,2.4 1.9,4.4 4,2.6 -0.3,1.3 -3.9,3.2 -4.2,1.5 -1.5,-0.6 -3.1,1.8 -2.4,3.2 -2.3,2.9 -1.8,-0.2 -3.6,-2.6 -0.3,-4.5 0.6,-2.4 -1.6,-5.7 -2.1,-1.8 -0.2,-2.6 2.3,-1 2.1,-3.1 0.5,-1 -1.6,-1.8 z" />
        <path
           id="AK"
           class="state"
           fill="#000000"
           d="m 332.1,553.7 -0.3,85.4 1.6,1 3.1,0.2 1.5,-1.1 h 2.6 l 0.2,2.9 7,6.8 0.5,2.6 3.4,-1.9 0.6,-0.2 0.3,-3.1 1.5,-1.6 1.1,-0.2 1.9,-1.5 3.1,2.1 0.6,2.9 1.9,1.1 1.1,2.4 3.9,1.8 3.4,6 2.7,3.9 2.3,2.7 1.5,3.7 5,1.8 5.2,2.1 1,4.4 0.5,3.1 -1,3.4 -1.8,2.3 -1.6,-0.8 -1.5,-3.1 -2.7,-1.5 -1.8,-1.1 -0.8,0.8 1.5,2.7 0.2,3.7 -1.1,0.5 -1.9,-1.9 -2.1,-1.3 0.5,1.6 1.3,1.8 -0.8,0.8 c 0,0 -0.8,-0.3 -1.3,-1 -0.5,-0.6 -2.1,-3.4 -2.1,-3.4 l -1,-2.3 c 0,0 -0.3,1.3 -1,1 -0.6,-0.3 -1.3,-1.5 -1.3,-1.5 l 1.8,-1.9 -1.5,-1.5 v -5 h -0.8 l -0.8,3.4 -1.1,0.5 -1,-3.7 -0.6,-3.7 -0.8,-0.5 0.3,5.7 v 1.1 l -1.5,-1.3 -3.6,-6 -2.1,-0.5 -0.6,-3.7 -1.6,-2.9 -1.6,-1.1 v -2.3 l 2.1,-1.3 -0.5,-0.3 -2.6,0.6 -3.4,-2.4 -2.6,-2.9 -4.8,-2.6 -4,-2.6 1.3,-3.2 V 642 l -1.8,1.6 -2.9,1.1 -3.7,-1.1 -5.7,-2.4 h -5.5 l -0.6,0.5 -6.5,-3.9 -2.1,-0.3 -2.7,-5.8 -3.6,0.3 -3.6,1.5 0.5,4.5 1.1,-2.9 1,0.3 -1.5,4.4 3.2,-2.7 0.6,1.6 -3.9,4.4 -1.3,-0.3 -0.5,-1.9 -1.3,-0.8 -1.3,1.1 -2.7,-1.8 -3.1,2.1 -1.8,2.1 -3.4,2.1 -4.7,-0.2 -0.5,-2.1 3.7,-0.6 v -1.3 l -2.3,-0.6 1,-2.4 2.3,-3.9 v -1.8 l 0.2,-0.8 4.4,-2.3 1,1.3 h 2.7 l -1.3,-2.6 -3.7,-0.3 -5,2.7 -2.4,3.4 -1.8,2.6 -1.1,2.3 -4.2,1.5 -3.1,2.6 -0.3,1.6 2.3,1 0.8,2.1 -2.7,3.2 -6.5,4.2 -7.8,4.2 -2.1,1.1 -5.3,1.1 -5.3,2.3 1.8,1.3 -1.5,1.5 -0.5,1.1 -2.7,-1 -3.2,0.2 -0.8,2.3 h -1 l 0.3,-2.4 -3.6,1.3 -2.9,1 -3.4,-1.3 -2.9,1.9 h -3.2 l -2.1,1.3 -1.6,0.8 -2.1,-0.3 -2.6,-1.1 -2.3,0.6 -1,1 -1.6,-1.1 v -1.9 l 3.1,-1.3 6.3,0.6 4.4,-1.6 2.1,-2.1 2.9,-0.6 1.8,-0.8 2.7,0.2 1.6,1.3 1,-0.3 2.3,-2.7 3.1,-1 3.4,-0.6 1.3,-0.3 0.6,0.5 h 0.8 l 1.3,-3.7 4,-1.5 1.9,-3.7 2.3,-4.5 1.6,-1.5 0.3,-2.6 -1.6,1.3 -3.4,0.6 -0.6,-2.4 -1.3,-0.3 -1,1 -0.2,2.9 -1.5,-0.2 -1.5,-5.8 -1.3,1.3 -1.1,-0.5 -0.3,-1.9 -4,0.2 -2.1,1.1 -2.6,-0.3 1.5,-1.5 0.5,-2.6 -0.6,-1.9 1.5,-1 1.3,-0.2 -0.6,-1.8 v -4.4 l -1,-1 -0.8,1.5 h -6.1 l -1.5,-1.3 -0.6,-3.9 -2.1,-3.6 v -1 l 2.1,-0.8 0.2,-2.1 1.1,-1.1 -0.8,-0.5 -1.3,0.5 -1.1,-2.7 1,-5 4.5,-3.2 2.6,-1.6 1.9,-3.7 2.7,-1.3 2.6,1.1 0.3,2.4 2.4,-0.3 3.2,-2.4 1.6,0.6 1,0.6 h 1.6 l 2.3,-1.3 0.8,-4.4 c 0,0 0.3,-2.9 1,-3.4 0.6,-0.5 1,-1 1,-1 l -1.1,-1.9 -2.6,0.8 -3.2,0.8 -1.9,-0.5 -3.6,-1.8 -5,-0.2 -3.6,-3.7 0.5,-3.9 0.6,-2.4 -2.1,-1.8 -1.9,-3.7 0.5,-0.8 6.8,-0.5 h 2.1 l 1,1 h 0.6 l -0.2,-1.6 3.9,-0.6 2.6,0.3 1.5,1.1 -1.5,2.1 -0.5,1.5 2.7,1.6 5,1.8 1.8,-1 -2.3,-4.4 -1,-3.2 1,-0.8 -3.4,-1.9 -0.5,-1.1 0.5,-1.6 -0.8,-3.9 -2.9,-4.7 -2.4,-4.2 2.9,-1.9 h 3.2 l 1.8,0.6 4.2,-0.2 3.7,-3.6 1.1,-3.1 3.7,-2.4 1.6,1 2.7,-0.6 3.7,-2.1 1.1,-0.2 1,0.8 4.5,-0.2 2.7,-3.1 h 1.1 l 3.6,2.4 1.9,2.1 -0.5,1.1 0.6,1.1 1.6,-1.6 3.9,0.3 0.3,3.7 1.9,1.5 7.1,0.6 6.3,4.2 1.5,-1 5.2,2.6 2.1,-0.6 1.9,-0.8 4.8,1.9 z m -115.1,28.9 2.1,5.3 -0.2,1 -2.9,-0.3 -1.8,-4 -1.8,-1.5 H 210 l -0.2,-2.6 1.8,-2.4 1.1,2.4 1.5,1.5 z m -2.6,33.5 3.7,0.8 3.7,1 0.8,1 -1.6,3.7 -3.1,-0.2 -3.4,-3.6 z m -20.7,-14.1 1.1,2.6 1.1,1.6 -1.1,0.8 -2.1,-3.1 V 602 Z m -13.7,73.1 3.4,-2.3 3.4,-1 2.6,0.3 0.5,1.6 1.9,0.5 1.9,-1.9 -0.3,-1.6 2.7,-0.6 2.9,2.6 -1.1,1.8 -4.4,1.1 -2.7,-0.5 -3.7,-1.1 -4.4,1.5 -1.6,0.3 z m 48.9,-4.5 1.6,1.9 2.1,-1.6 -1.5,-1.3 z m 2.9,3 1.1,-2.3 2.1,0.3 -0.8,1.9 h -2.4 z m 23.6,-1.9 1.5,1.8 1,-1.1 -0.8,-1.9 z m 8.8,-12.5 1.1,5.8 2.9,0.8 5,-2.9 4.4,-2.6 -1.6,-2.4 0.5,-2.4 -2.1,1.3 -2.9,-0.8 1.6,-1.1 1.9,0.8 3.9,-1.8 0.5,-1.5 -2.4,-0.8 0.8,-1.9 -2.7,1.9 -4.7,3.6 -4.8,2.9 z m 42.3,-19.8 2.4,-1.5 -1,-1.8 -1.8,1 z" />
        <path
           id="FL"
           class="state"
           fill="#000000"
           d="m 929.4,545.5 2.3,7.3 3.7,9.7 5.3,9.4 3.7,6.3 4.8,5.5 4,3.7 1.6,2.9 -1.1,1.3 -0.7,1.4 2.9,7.4 2.9,2.9 2.6,5.3 3.6,5.8 4.5,8.2 1.3,7.6 0.5,12 0.6,1.8 -0.3,3.4 -2.4,1.3 0.3,1.9 -0.6,1.9 0.3,2.4 0.5,1.9 -2.7,3.2 -3.1,1.5 -3.9,0.2 -1.5,1.6 -2.4,1 -1.3,-0.5 -1.1,-1 -0.3,-2.9 -0.8,-3.4 -3.4,-5.2 -3.6,-2.3 -3.9,-0.3 -0.8,1.3 -3.1,-4.4 -0.6,-3.6 -2.6,-4 -1.8,-1.1 -1.6,2.1 -1.8,-0.3 -2.1,-5 -2.9,-3.9 -2.9,-5.3 -2.6,-3.1 -3.6,-3.7 2.1,-2.4 3.2,-5.5 -0.2,-1.6 -4.5,-1 -1.6,0.6 0.3,0.6 2.6,1 -1.5,4.5 -0.8,0.5 -1.8,-4 -1.3,-4.8 -0.3,-2.7 1.5,-4.7 v -9.5 l -3,-3.7 -1.3,-3.1 -5.2,-1.3 -1.9,-0.6 -1.6,-2.6 -3.4,-1.6 -1.1,-3.4 -2.7,-1 -2.4,-3.7 -4.2,-1.5 -2.9,-1.5 h -2.6 l -4,0.8 -0.2,1.9 0.8,1 -0.5,1.1 -3.1,-0.2 -3.7,3.6 -3.6,1.9 h -3.9 l -3.2,1.3 -0.3,-2.7 -1.6,-1.9 -2.9,-1.1 -1.6,-1.5 -8.1,-3.9 -7.6,-1.8 -4.4,0.6 -6,0.5 -6,2.1 -3.5,0.6 -0.2,-8 -2.6,-1.9 -1.8,-1.8 0.3,-3.1 10.2,-1.3 25.5,-2.9 6.8,-0.6 5.4,0.3 2.6,3.9 1.5,1.5 8.1,0.5 10.8,-0.6 21.5,-1.3 5.4,-0.7 h 4.6 l 0.2,2.9 3.8,0.8 0.3,-4.8 -1.6,-4.5 1,-0.7 5.1,0.5 z m 12.5,132.4 2.4,-0.6 1.3,-0.2 1.5,-2.3 2.3,-1.6 1.3,0.5 1.7,0.3 0.4,1.1 -3.5,1.2 -4.2,1.5 -2.3,1.2 z m 13.5,-5 1.2,1.1 2.7,-2.1 5.3,-4.2 3.7,-3.9 2.5,-6.6 1,-1.7 0.2,-3.4 -0.7,0.5 -1,2.8 -1.5,4.6 -3.2,5.3 -4.4,4.2 -3.4,1.9 z" />
        <path
           id="SC"
           class="state"
           fill="#000000"
           d="m 935.2,512.9 -1.8,1 -2.6,-1.3 -0.6,-2.1 -1.3,-3.6 -2.3,-2.1 -2.6,-0.6 -1.6,-4.8 -2.7,-6 -4.2,-1.9 -2.1,-1.9 -1.3,-2.6 -2.1,-2 -2.3,-1.3 -2.3,-2.9 -3.1,-2.3 -4.5,-1.8 -0.5,-1.5 -2.4,-2.9 -0.5,-1.5 -3.4,-5.2 -3.4,0.2 -4,-2.4 -1.3,-1.3 -0.3,-1.8 0.8,-1.9 2.3,-1 -0.3,-2.1 6.1,-2.6 9.1,-4.5 7.3,-0.8 16.5,-0.5 2.3,1.9 1.6,3.2 4.4,-0.5 12.6,-1.5 2.9,0.8 12.6,7.6 10.1,8.1 -5.4,5.5 -2.6,6.1 -0.5,6.3 -1.6,0.8 -1.1,2.7 -2.4,0.6 -2.1,3.6 -2.7,2.7 -2.3,3.4 -1.6,0.8 -3.6,3.4 -2.9,0.2 1,3.2 -5,5.5 z" />
        <path
           id="GA"
           class="state"
           fill="#000000"
           d="m 863.6,458 -4.8,0.8 -8.4,1.1 -8.6,0.9 v 2.2 l 0.2,2.1 0.6,3.4 3.4,7.9 2.4,9.9 1.5,6.1 1.6,4.8 1.5,7 2.1,6.3 2.6,3.4 0.5,3.4 1.9,0.8 0.2,2.1 -1.8,4.8 -0.5,3.2 -0.2,1.9 1.6,4.4 0.3,5.3 -0.8,2.4 0.6,0.8 1.5,0.8 0.6,3.4 2.6,3.9 1.5,1.5 7.9,0.2 10.8,-0.6 21.5,-1.3 5.4,-0.7 h 4.6 l 0.2,2.9 2.6,0.8 0.3,-4.4 -1.6,-4.5 1.1,-1.6 5.8,0.8 5,0.3 -0.8,-6.3 2.3,-10 1.5,-4.2 -0.5,-2.6 3.3,-6.2 -0.5,-1.4 -1.9,0.7 -2.6,-1.3 -0.6,-2.1 -1.3,-3.6 -2.3,-2.1 -2.6,-0.6 -1.6,-4.8 -2.9,-6.3 -4.2,-1.9 -2.1,-1.9 -1.3,-2.6 -2.1,-1.9 -2.3,-1.3 -2.3,-2.9 -3.1,-2.3 -4.5,-1.8 -0.5,-1.5 -2.4,-2.9 -0.5,-1.5 -3.4,-4.9 -3.4,0.2 -4.1,-3 -1.3,-1.3 -0.3,-1.8 0.8,-1.9 2.4,-1.2 -1.1,-1.2 0.1,-0.3 -5.8,1 -7,0.8 z" />
        <path
           id="AL"
           class="state"
           fill="#000000"
           d="m 799.6,566.8 -1.6,-15.2 -2.7,-18.8 0.2,-14.1 0.8,-31 -0.2,-16.7 0.2,-6.4 7.8,-0.4 27.8,-2.6 8.9,-0.7 -0.1,2.2 0.2,2.1 0.6,3.4 3.4,7.9 2.4,9.9 1.5,6.1 1.6,4.8 1.5,7 2.1,6.3 2.6,3.4 0.5,3.4 1.9,0.8 0.2,2.1 -1.8,4.8 -0.5,3.2 -0.2,1.9 1.6,4.4 0.3,5.3 -0.8,2.4 0.6,0.8 1.5,0.8 1,2.5 h -6.3 l -6.8,0.6 -25.5,2.9 -10.4,1.4 -0.1,3.8 1.8,1.8 2.6,1.9 0.6,7.9 -5.5,2.6 -2.7,-0.3 2.7,-1.9 v -1 l -3.1,-6 -2.3,-0.6 -1.5,4.4 -1.3,2.7 -0.6,-0.2 h -2.9 z" />
        <path
           id="NC"
           class="state"
           fill="#000000"
           d="m 1006.1,398.5 1.7,4.7 3.6,6.5 2.4,2.4 0.6,2.3 -2.4,0.2 0.8,0.6 -0.3,4.2 -2.6,1.3 -0.6,2.1 -1.3,2.9 -3.7,1.6 -2.4,-0.3 -1.5,-0.2 -1.6,-1.3 0.3,1.3 v 1 h 1.9 l 0.8,1.3 -1.9,6.3 h 4.2 l 0.6,1.6 2.3,-2.3 1.3,-0.5 -1.9,3.6 -3.1,4.8 h -1.3 l -1.1,-0.5 -2.7,0.6 -5.2,2.4 -6.5,5.3 -3.4,4.7 -1.9,6.5 -0.5,2.4 -4.7,0.5 -5.5,1.3 -9.9,-8.2 -12.6,-7.6 -2.9,-0.8 -12.6,1.5 -4.3,0.8 -1.6,-3.2 -3,-2.1 -16.5,0.5 -7.3,0.8 -9.1,4.5 -6.1,2.6 -1.6,0.3 -5.8,1 -7,0.8 -6.8,0.5 0.5,-4.1 1.8,-1.5 2.7,-0.6 0.6,-3.7 4.2,-2.7 3.9,-1.5 4.2,-3.6 4.4,-2.1 0.6,-3.1 3.9,-3.9 0.6,-0.2 c 0,0 0,1.1 0.8,1.1 0.8,0 1.9,0.3 1.9,0.3 l 2.3,-3.6 2.1,-0.6 2.3,0.3 1.6,-3.6 2.9,-2.6 0.5,-2.1 v -4 l 4.5,0.7 7.1,-1.3 15.8,-1.9 17.1,-2.6 19.9,-4 19.7,-4.2 11.4,-2.8 z m 3.9,33 2.6,-2.5 3.2,-2.6 1.5,-0.6 0.2,-2 -0.6,-6.1 -1.5,-2.3 -0.6,-1.9 0.7,-0.2 2.7,5.5 0.4,4.4 -0.2,3.4 -3.4,1.5 -2.8,2.4 -1.1,1.2 z" />
        <path
           id="TN"
           class="state"
           fill="#000000"
           d="m 871.1,420.6 -51.9,5 -15.8,1.8 -4.6,0.5 h -3.9 v 3.9 l -8.4,0.5 -7,0.6 -11.1,0.1 -0.3,5.8 -2.1,6.3 -1,3 -1.3,4.4 -0.3,2.6 -4,2.3 1.5,3.6 -1,4.4 -1,0.8 7.3,-0.2 24.1,-1.9 5.3,-0.2 8.1,-0.5 27.8,-2.6 10.2,-0.8 8.4,-1 8.4,-1.1 4.8,-0.8 -0.1,-4.5 1.8,-1.5 2.7,-0.6 0.6,-3.7 4.2,-2.7 3.9,-1.5 4.2,-3.6 4.4,-2.1 0.9,-3.5 4.3,-3.9 0.6,-0.2 c 0,0 0,1.1 0.8,1.1 0.8,0 1.9,0.3 1.9,0.3 l 2.3,-3.6 2.1,-0.6 2.3,0.3 1.6,-3.6 2.1,-2.2 0.6,-1 0.2,-3.9 -1.5,-0.3 -2.4,1.9 -7.9,0.2 -12,1.9 z" />
        <path
           id="RI"
           class="state"
           fill="#000000"
           d="m 1048.1,279.8 -0.5,-4.2 -0.8,-4.4 -1.7,-5.9 5.7,-1.5 1.6,1.1 3.4,4.4 2.9,4.4 -2.9,1.5 -1.3,-0.2 -1.1,1.8 -2.4,1.9 z" />
        <path
           id="CT"
           class="state"
           fill="#000000"
           d="m 1047.2,280.1 -0.6,-4.2 -0.8,-4.4 -1.6,-6 -4.2,0.9 -21.8,4.8 0.6,3.3 1.5,7.3 v 8.1 l -1.1,2.3 1.8,2.1 5,-3.4 3.6,-3.2 1.9,-2.1 0.8,0.6 2.7,-1.5 5.2,-1.1 z" />
        <path
           id="MA"
           class="state"
           fill="#000000"
           d="m 1074,273.9 2.2,-0.7 0.5,-1.7 1,0.1 1,2.3 -1.3,0.5 -3.9,0.1 z m -9.4,0.8 2.3,-2.6 h 1.6 l 1.8,1.5 -2.4,1 -2.2,1 z m -34.8,-22 17.5,-4.2 2.3,-0.6 2.1,-3.2 3.7,-1.7 2.9,4.4 -2.4,5.2 -0.3,1.5 1.9,2.6 1.1,-0.8 h 1.8 l 2.3,2.6 3.9,6 3.6,0.5 2.3,-1 1.8,-1.8 -0.8,-2.7 -2.1,-1.6 -1.5,0.8 -1,-1.3 0.5,-0.5 2.1,-0.2 1.8,0.8 1.9,2.4 1,2.9 0.3,2.4 -4.2,1.5 -3.9,1.9 -3.9,4.5 -1.9,1.5 v -1 l 2.4,-1.5 0.5,-1.8 -0.8,-3.1 -2.9,1.5 -0.8,1.5 0.5,2.3 -2.1,1 -2.7,-4.5 -3.4,-4.4 -2.1,-1.8 -6.5,1.9 -5.1,1.1 -21.8,4.8 -0.4,-4.9 0.6,-10.6 5.2,-0.9 z" />
        <path
           id="ME"
           class="state"
           fill="#000000"
           d="m 1097.2,177.3 1.9,2.1 2.3,3.7 v 1.9 l -2.1,4.7 -1.9,0.6 -3.4,3.1 -4.8,5.5 c 0,0 -0.6,0 -1.3,0 -0.6,0 -1,-2.1 -1,-2.1 l -1.8,0.2 -1,1.5 -2.4,1.5 -1,1.5 1.6,1.5 -0.5,0.6 -0.5,2.7 -1.9,-0.2 v -1.6 l -0.3,-1.3 -1.5,0.3 -1.8,-3.2 -2.1,1.3 1.3,1.5 0.3,1.1 -0.8,1.3 0.3,3.1 0.2,1.6 -1.6,2.6 -2.9,0.5 -0.3,2.9 -5.3,3.1 -1.3,0.5 -1.6,-1.5 -3.1,3.6 1,3.2 -1.5,1.3 -0.2,4.4 -1.1,6.3 -2.5,-1.2 -0.5,-3.1 -3.9,-1.1 -0.3,-2.7 -7.3,-23.4 -4.2,-13.6 1.4,-0.1 1.5,0.4 v -2.6 l 0.8,-5.5 2.6,-4.7 1.5,-4 -1.9,-2.4 v -6 l 0.8,-1 0.8,-2.7 -0.2,-1.5 -0.2,-4.8 1.8,-4.8 2.9,-8.9 2.1,-4.2 h 1.3 l 1.3,0.2 v 1.1 l 1.3,2.3 2.7,0.6 0.8,-0.8 v -1 l 4,-2.9 1.8,-1.8 1.5,0.2 6,2.4 1.9,1 9.1,29.9 h 6 l 0.8,1.9 0.2,4.8 2.9,2.3 h 0.8 l 0.2,-0.5 -0.5,-1.1 z m -20.9,30.2 1.5,-1.5 1.4,1.1 0.6,2.4 -1.7,0.9 z m 6.7,-5.9 1.8,1.9 c 0,0 1.3,0.1 1.3,-0.2 0,-0.3 0.2,-2 0.2,-2 l 0.9,-0.8 -0.8,-1.8 -2,0.7 z" />
        <path
           id="NH"
           class="state"
           fill="#000000"
           d="m 1054.8,242.4 0.9,-1.1 1.1,-3.3 -2.5,-0.9 -0.5,-3.1 -3.9,-1.1 -0.3,-2.7 -7.3,-23.4 -4.6,-14.5 h -0.9 l -0.6,1.6 -0.6,-0.5 -1,-1 -1.5,1.9 v 5 l 0.3,5.7 1.9,2.7 v 4 l -3.7,5.1 -2.6,1.1 v 1.1 l 1.1,1.8 v 8.6 l -0.8,9.2 -0.2,4.8 1,1.3 -0.2,4.5 -0.5,1.8 1.5,0.9 16.4,-4.7 2.3,-0.6 1.5,-2.6 z" />
        <path
           id="VT"
           class="state"
           fill="#000000"
           d="m 1018.3,253.7 -0.8,-5.7 -2.4,-10 -0.6,-0.3 -2.9,-1.3 0.8,-2.9 -0.8,-2.1 -2.7,-4.6 1,-3.9 -0.8,-5.2 -2.4,-6.5 -0.8,-4.9 26.2,-6.7 0.3,5.8 1.9,2.7 v 4 l -3.7,4 -2.6,1.1 v 1.1 l 1.1,1.8 v 8.6 l -0.8,9.2 -0.2,4.8 1,1.3 -0.2,4.5 -0.5,1.8 0.7,1.6 -7,1.4 z" />
        <path
           id="NY"
           class="state"
           fill="#000000"
           d="m 1002.6,289.4 -1.1,-1 -2.6,-0.2 -2.3,-1.9 -1.6,-6.1 -3.5,0.1 -2.4,-2.7 -19.4,4.4 -43,8.7 -7.5,1.2 -0.7,-6.5 1.4,-1.1 1.3,-1.1 1,-1.6 1.8,-1.1 1.9,-1.8 0.5,-1.6 2.1,-2.7 1.1,-1 -0.2,-1 -1.3,-3.1 -1.8,-0.2 -1.9,-6.1 2.9,-1.8 4.4,-1.5 4,-1.3 3.2,-0.5 6.3,-0.2 1.9,1.3 1.6,0.2 2.1,-1.3 2.6,-1.1 5.2,-0.5 2.1,-1.8 1.8,-3.2 1.6,-1.9 h 2.1 l 1.9,-1.1 0.2,-2.3 -1.5,-2.1 -0.3,-1.5 1.1,-2.1 v -1.5 h -1.8 l -1.8,-0.8 -0.8,-1.1 -0.2,-2.6 5.8,-5.5 0.6,-0.8 1.5,-2.9 2.9,-4.5 2.7,-3.7 2.1,-2.4 2.4,-1.8 3.1,-1.2 5.5,-1.3 3.2,0.2 4.5,-1.5 7.6,-2.1 0.5,5 2.4,6.5 0.8,5.2 -1,3.9 2.6,4.5 0.8,2.1 -0.8,2.9 2.9,1.3 0.6,0.3 3.1,11 -0.5,5.1 -0.5,10.8 0.8,5.5 0.8,3.6 1.5,7.3 v 8.1 l -1.1,2.3 1.8,2 0.8,1.7 -1.9,1.8 0.3,1.3 1.3,-0.3 1.5,-1.3 2.3,-2.6 1.1,-0.6 1.6,0.6 2.3,0.2 7.9,-3.9 2.9,-2.7 1.3,-1.5 4.2,1.6 -3.4,3.6 -3.9,2.9 -7.1,5.3 -2.6,1 -5.8,1.9 -4,1.1 -1.2,-0.5 -0.2,-3.7 0.5,-2.7 -0.2,-2.1 -2.8,-1.7 -4.5,-1 -3.9,-1.1 z" />
        <path
           id="NJ"
           class="state"
           fill="#000000"
           d="m 1002.2,290.3 -2.1,2.4 v 3.1 l -1.9,3.1 -0.2,1.6 1.3,1.3 -0.2,2.4 -2.3,1.1 0.8,2.7 0.2,1.1 2.7,0.3 1,2.6 3.6,2.4 2.4,1.6 v 0.8 l -3.2,3.1 -1.6,2.3 -1.5,2.7 -2.3,1.3 -1.2,0.7 -0.2,1.2 -0.6,2.6 1.1,2.2 3.2,2.9 4.8,2.3 4,0.6 0.2,1.5 -0.8,1 0.3,2.7 h 0.8 l 2.1,-2.4 0.8,-4.8 2.7,-4 3.1,-6.5 1.1,-5.5 -0.6,-1.1 -0.2,-9.4 -1.6,-3.4 -1.1,0.8 -2.7,0.3 -0.5,-0.5 1.1,-1 2.1,-1.9 0.1,-1.1 -0.4,-3.4 0.5,-2.7 -0.2,-2.1 -2.6,-1.1 -4.5,-1 -3.9,-1.1 z" />
        <path
           id="PA"
           class="state"
           fill="#000000"
           d="m 996.2,326.5 1.1,-0.6 2.3,-0.6 1.5,-2.7 1.6,-2.3 3.2,-3.1 v -0.8 l -2.4,-1.6 -3.6,-2.4 -1,-2.6 -2.7,-0.3 -0.2,-1.1 -0.8,-2.7 2.3,-1.1 0.2,-2.4 -1.3,-1.3 0.2,-1.6 1.9,-3.1 v -3.1 l 2.3,-2.4 0.2,-1.1 -2.6,-0.2 -2.3,-1.9 -2.4,-5.3 -3,-0.9 -2.3,-2.1 -18.6,4 -43,8.7 -8.9,1.5 -0.5,-7.1 -5.5,5.6 -1.3,0.5 -4.2,3 2.9,19.1 2.5,9.7 3.6,19.3 3.3,-0.6 11.9,-1.5 37.9,-7.7 14.9,-2.8 8.3,-1.6 0.3,-0.2 2.1,-1.6 z" />
        <path
           id="DE"
           class="state"
           fill="#000000"
           d="m 996.4,330.4 0.6,-2.1 v -1.2 l -1.3,-0.1 -2.1,1.6 -1.5,1.5 1.5,4.2 2.3,5.7 2.1,9.7 1.6,6.3 5,-0.2 6.1,-1.2 -2.3,-7.4 -1,0.5 -3.6,-2.4 -1.8,-4.7 -1.9,-3.6 -2.3,-1 -2.1,-3.6 z" />
        <path
           id="MD"
           class="state"
           fill="#000000"
           d="m 1011,355.3 -6.1,1.3 -5.8,0.2 -1.8,-7.1 -2.1,-9.7 -2.3,-5.7 -1.3,-4.4 -7.5,1.6 -14.9,2.8 -37.5,7.6 1.1,5 1,5.7 0.3,-0.3 2.1,-2.4 2.3,-2.6 2.4,-0.6 1.5,-1.5 1.8,-2.6 1.3,0.6 2.9,-0.3 2.6,-2.1 2,-1.5 1.8,-0.5 1.6,1.1 2.9,1.5 1.9,1.8 1.2,1.5 4.1,1.7 v 2.9 l 5.5,1.3 1.1,0.5 1.4,-2 2.9,2 -1.3,2.5 -0.8,4 -1.8,2.6 v 2.1 l 0.6,1.8 5.1,1.4 4.3,-0.1 3.1,1 2.1,0.3 1,-2.1 -1.5,-2.1 v -1.8 l -2.4,-2.1 -2.1,-5.5 1.3,-5.3 -0.2,-2.1 -1.3,-1.3 c 0,0 1.5,-1.6 1.5,-2.3 0,-0.6 0.5,-2.1 0.5,-2.1 l 1.9,-1.3 1.9,-1.6 0.5,1 -1.5,1.6 -1.3,3.7 0.3,1.1 1.8,0.3 0.5,5.5 -2.1,1 0.3,3.6 0.5,-0.2 1.1,-1.9 1.6,1.8 -1.6,1.3 -0.3,3.4 2.6,3.4 3.9,0.5 1.6,-0.8 3.2,4.2 1.4,0.5 6.7,-2.8 2,-4 z m -16.7,9 1.1,2.5 0.2,1.8 1.1,1.9 c 0,0 0.9,-0.9 0.9,-1.2 0,-0.3 -0.7,-3.1 -0.7,-3.1 l -0.7,-2.3 z" />
        <path
           id="WV"
           class="state"
           fill="#000000"
           d="m 930.6,342 1.1,4.9 1.1,6.9 3.6,-2.7 2.3,-3.1 2.5,-0.6 1.5,-1.5 1.8,-2.6 1.2,0.6 2.9,-0.3 2.6,-2.1 2,-1.5 1.8,-0.5 1.3,1 2.2,1.1 1.9,1.8 1.4,1.3 -0.1,4.7 -5.7,-3.1 -4.5,-1.8 -0.2,5.3 -0.5,2.1 -1.6,2.7 -0.6,1.6 -3.1,2.4 -0.5,2.3 -3.4,0.3 -0.3,3.1 -1.1,5.5 h -2.6 l -1.3,-0.8 -1.6,-2.7 -1.8,0.2 -0.3,4.4 -2.1,6.6 -5,10.8 0.8,1.3 -0.2,2.7 -2.1,1.9 -1.5,-0.3 -3.2,2.4 -2.6,-1 -1.8,4.7 c 0,0 -3.7,0.8 -4.4,1 -0.6,0.2 -2.4,-1.3 -2.4,-1.3 l -2.4,2.3 -2.6,0.6 -2.9,-0.8 -1.3,-1.3 -2.2,-3 -3.1,-2 -2.6,-2.7 -2.9,-3.7 -0.6,-2.3 -2.6,-1.5 -0.8,-1.6 -0.2,-5.3 2.2,-0.1 1.9,-0.8 0.2,-2.7 1.6,-1.5 0.2,-5 1,-3.9 1.3,-0.6 1.3,1.1 0.5,1.8 1.8,-1 0.5,-1.6 -1.1,-1.8 v -2.4 l 1,-1.3 2.3,-3.4 1.3,-1.5 2.1,0.5 2.3,-1.6 3.1,-3.4 2.3,-3.9 0.3,-5.7 0.5,-5 v -4.7 l -1.1,-3.1 1,-1.5 1.3,-1.3 3.5,19.8 4.6,-0.8 z" />
        <path
           id="KY"
           class="state"
           fill="#000000"
           d="m 895.8,397.8 -2.3,2.7 -4.2,3.6 -4.3,5.9 -1.8,1.8 v 2.1 l -3.9,2.1 -5.7,3.4 -3.5,0.4 -51.9,4.9 -15.8,1.8 -4.6,0.5 h -3.9 l -0.2,4.2 -8.2,0.1 -7,0.6 -10.4,0.2 1.9,-0.2 2.2,-1.8 2.1,-1.1 0.2,-3.2 0.9,-1.8 -1.6,-2.5 0.8,-1.9 2.3,-1.8 2.1,-0.6 2.7,1.3 3.6,1.3 1.1,-0.3 0.2,-2.3 -1.3,-2.4 0.3,-2.3 1.9,-1.5 2.6,-0.6 1.6,-0.6 -0.8,-1.8 -0.6,-1.9 1.1,-0.8 1.1,-3.3 3,-1.7 5.8,-1 3.6,-0.5 1.5,1.9 1.8,0.8 1.8,-3.2 2.9,-1.5 1.9,1.6 0.8,1.1 2.1,-0.5 -0.2,-3.4 2.9,-1.6 1.1,-0.8 1.1,1.6 h 4.7 l 0.8,-2.1 -0.3,-2.3 2.9,-3.6 4.7,-3.9 0.5,-4.5 2.7,-0.3 3.9,-1.8 2.7,-1.9 -0.3,-1.9 -1.5,-1.5 0.6,-2.2 4.1,-0.2 2.4,-0.8 2.9,1.6 1.6,4.4 5.8,0.3 1.8,1.8 2.1,0.2 2.4,-1.5 3.1,0.5 1.3,1.5 2.7,-2.6 1.8,-1.3 h 1.6 l 0.6,2.7 1.8,1 2.4,2.2 0.2,5.5 0.8,1.6 2.6,1.5 0.6,2.3 2.9,3.7 2.6,2.7 z" />
        <path
           id="OH"
           class="state"
           fill="#000000"
           d="m 905.4,295 -6.1,4.1 -3.9,2.3 -3.4,3.7 -4,3.9 -3.2,0.8 -2.9,0.5 -5.5,2.6 -2.1,0.2 -3.4,-3.1 -5.2,0.6 -2.6,-1.5 -2.4,-1.4 -4.9,0.7 -10.2,1.6 -7.8,1.2 1.3,14.6 1.8,13.7 2.6,23.4 0.6,4.8 4.1,-0.1 2.4,-0.8 3.4,1.5 2.1,4.4 h 5.1 l 1.9,2.1 1.8,-0.1 2.5,-1.3 2.5,0.4 2,1.5 1.7,-2.1 2.3,-1.3 2.1,-0.7 0.6,2.7 1.8,1 3.5,2.3 2.2,-0.1 1.1,-1.1 -0.1,-1.4 1.6,-1.5 0.2,-5 1,-3.9 1.5,-1.4 1.5,0.9 0.8,1.2 1.2,-0.2 -0.4,-2.4 -0.6,-0.6 v -2.4 l 1,-1.3 2.3,-3.4 1.3,-1.5 2.1,0.5 2.3,-1.6 3.1,-3.4 2.3,-3.9 0.2,-5.4 0.5,-5 v -4.7 l -1.1,-3.1 1,-1.5 0.9,-1 -1.4,-9.8 z" />
        <path
           id="MI"
           class="state"
           fill="#000000"
           d="m 755.6,182.1 1.8,-2.1 2.2,-0.8 5.4,-3.9 2.3,-0.6 0.5,0.5 -5.1,5.1 -3.3,1.9 -2.1,0.9 z m 86.2,32.1 0.6,2.5 3.2,0.2 1.3,-1.2 c 0,0 -0.1,-1.5 -0.4,-1.6 -0.3,-0.2 -1.6,-1.9 -1.6,-1.9 l -2.2,0.2 -1.6,0.2 -0.3,1.1 z m 30.1,63 -3.2,-8.2 -2.3,-9.1 -2.4,-3.2 -2.6,-1.8 -1.6,1.1 -3.9,1.8 -1.9,5 -2.7,3.7 -1.1,0.6 -1.5,-0.6 c 0,0 -2.6,-1.5 -2.4,-2.1 0.2,-0.6 0.5,-5 0.5,-5 l 3.4,-1.3 0.8,-3.4 0.6,-2.6 2.4,-1.6 -0.3,-10 -1.6,-2.3 -1.3,-0.8 -0.8,-2.1 0.8,-0.8 1.6,0.3 0.2,-1.6 -2.6,-2.2 -1.3,-2.6 h -2.6 l -4.5,-1.5 -5.5,-3.4 h -2.7 l -0.6,0.6 -1,-0.5 -3.1,-2.3 -2.9,1.8 -2.9,2.3 0.3,3.6 1,0.3 2.1,0.5 0.5,0.8 -2.6,0.8 -2.6,0.3 -1.5,1.8 -0.3,2.1 0.3,1.6 0.3,5.5 -3.6,2.1 -0.6,-0.2 v -4.2 l 1.3,-2.4 0.6,-2.4 -0.8,-0.8 -1.9,0.8 -1,4.2 -2.7,1.1 -1.8,1.9 -0.2,1 0.6,0.8 -0.6,2.6 -2.3,0.5 v 1.1 l 0.8,2.4 -1.1,6.1 -1.6,4 0.6,4.7 0.5,1.1 -0.8,2.4 -0.3,0.8 -0.3,2.7 3.6,6 2.9,6.5 1.5,4.8 -0.8,4.7 -1,6 -2.4,5.2 -0.3,2.7 -3.3,3.1 4.4,-0.2 21.4,-2.3 7.3,-1 0.1,1.7 6.9,-1.2 10.3,-1.5 3.9,-0.5 0.1,-0.6 0.2,-1.5 2.1,-3.7 2,-1.7 -0.2,-5.1 1.6,-1.6 1.1,-0.3 0.2,-3.6 1.5,-3 1.1,0.6 0.2,0.6 0.8,0.2 1.9,-1 z m -130.4,-66 0.7,-0.6 2.7,-0.8 3.6,-2.3 v -1 l 0.6,-0.6 6,-1 2.4,-1.9 4.4,-2.1 0.2,-1.3 1.9,-2.9 1.8,-0.8 1.3,-1.8 2.3,-2.3 4.4,-2.4 4.7,-0.5 1.1,1.1 -0.3,1 -3.7,1 -1.5,3.1 -2.3,0.8 -0.5,2.4 -2.4,3.2 -0.3,2.6 0.8,0.5 1,-1.1 3.6,-2.9 1.3,1.3 h 2.3 l 3.2,1 1.5,1.1 1.5,3.1 2.7,2.7 3.9,-0.2 1.5,-1 1.6,1.3 1.6,0.5 1.3,-0.8 h 1.1 l 1.6,-1 4,-3.6 3.4,-1.1 6.6,-0.3 4.5,-1.9 2.6,-1.3 1.5,0.2 v 5.7 l 0.5,0.3 2.9,0.8 1.9,-0.5 6.1,-1.6 1.1,-1.1 1.5,0.5 v 7 l 3.2,3.1 1.3,0.6 1.3,1 -1.3,0.3 -0.8,-0.3 -3.7,-0.5 -2.1,0.6 -2.3,-0.2 -3.2,1.5 h -1.8 l -5.8,-1.3 -5.2,0.2 -1.9,2.6 -7,0.6 -2.4,0.8 -1.1,3.1 -1.3,1.1 -0.5,-0.2 -1.5,-1.6 -4.5,2.4 h -0.6 l -1.1,-1.6 -0.8,0.2 -1.9,4.4 -1,4 -3.2,7 -1.2,-1 -1.4,-1 -1.9,-10.3 -3.5,-1.4 -2.1,-2.3 -12.1,-2.7 -2.9,-1 -8.2,-2.2 -7.9,-1.1 z" />
        <path
           id="WY"
           class="state"
           fill="#000000"
           d="m 528.3,243.8 -10.5,-0.8 -32.1,-3.3 -16.2,-2.1 -28.3,-4.1 -19.9,-3 -1.4,11.2 -3.8,24.3 -5.3,30.4 -1.5,10.5 -1.7,11.9 6.5,0.9 25.9,2.5 20.6,2.3 36.8,4.1 23.8,2.9 4.5,-44.2 1.4,-25.4 z" />
        <path
           id="MT"
           class="state"
           fill="#000000"
           d="m 530.7,222.3 0.6,-11.2 2.3,-24.8 c 0.5,-5 1.1,-8.5 1.4,-15.4 l 0.9,-14.6 -30.7,-2.8 -29.2,-3.5 -29.3,-4 -32.3,-5.3 -18.4,-3.4 -32.7,-6.9 -4.5,21.3 3.4,7.5 -1.4,4.6 1.8,4.6 3.2,1.4 4.6,10.8 2.7,3.2 0.5,1.1 3.4,1.1 0.5,2.1 -7.1,17.6 v 2.5 l 2.5,3.2 h 0.9 l 4.8,-3 0.7,-1.1 1.6,0.7 -0.2,5.3 2.7,12.6 3,2.5 0.9,0.7 1.8,2.3 -0.5,3.4 0.7,3.4 1.1,0.9 2.3,-2.3 h 2.7 l 3.2,1.6 2.5,-0.9 h 4.1 l 3.7,1.6 2.7,-0.5 0.5,-3 3,-0.7 1.4,1.4 0.5,3.2 1.8,1.4 1.5,-11.6 20.7,3 28.2,4 16.6,1.9 31.4,3.5 11,1.5 1.1,-15.4 z" />
        <path
           id="ID"
           class="state"
           fill="#000000"
           d="M 336.1,281 C 313.5,276.7 322,278.2 315,276.6 l 4.4,-17.5 4.3,-17.7 1.4,-4.2 2.5,-5.9 -1.3,-2.3 -2.5,0.1 -0.8,-1 0.5,-1.1 0.3,-3.1 4.5,-5.5 1.8,-0.5 1.1,-1.1 0.6,-3.2 0.9,-0.7 3.9,-5.8 3.9,-4.3 0.2,-3.8 -3.4,-2.6 -1.3,-4.4 0.4,-9.7 3.7,-16.5 4.5,-20.8 3.8,-13.5 0.8,-3.8 13,2.5 -4.2,21.5 2.9,7.7 -1.1,4.6 2,4.6 3.2,1.7 4.5,9.8 2.7,3.8 0.6,1.1 3.4,1.1 0.5,2.5 -6.9,16.8 0.3,3.3 2.7,2.9 1.9,0.5 4.8,-3.6 0.4,-0.5 0.2,0.8 0.3,4.1 2.6,12.9 3.5,2.7 0.4,0.8 2.1,2.4 -0.8,2.8 0.7,3.8 1.9,0.9 2.1,-1.6 2.6,-0.5 3.4,1.6 2.5,-0.6 3.8,-0.2 4,1.6 2.7,-0.3 0.9,-2.3 2.5,-1.6 0.7,1.7 0.6,2.2 2.3,2.5 -3.8,24 -5.1,29 -4.2,-0.3 -8.2,-1.5 -9.8,-1.8 -12.2,-2.4 -12.5,-2.5 -8.5,-1.8 -9.3,-1.7 z" />
        <path
           id="WA"
           class="state"
           fill="#000000"
           d="m 267.6,106.4 4.4,1.5 9.7,2.7 8.6,1.9 20,5.7 23,5.7 15.2,3.4 -1,3.9 -4.1,13.8 -4.5,20.8 -3.2,16.1 -0.4,9.4 -13.2,-3.9 -15.6,-3.4 -13.7,0.6 -1.6,-1.5 -5.3,1.9 -4,-0.3 -2.7,-1.8 -1.6,0.5 -4.2,-0.2 -1.9,-1.4 -4.8,-1.7 -1.4,-0.2 -5,-1.3 -1.8,1.5 -5.7,-0.3 -4.8,-3.8 0.2,-0.8 0.1,-7.9 -2.1,-3.9 -4.1,-0.7 -0.4,-2.4 -2.5,-0.6 -2.9,-0.5 -1.8,1 -2.3,-2.9 0.3,-2.9 2.7,-0.3 1.6,-4 -2.6,-1.1 0.2,-3.7 4.4,-0.6 -2.7,-2.7 -1.5,-7.1 0.6,-2.9 v -7.9 l -1.8,-3.2 2.3,-9.4 2.1,0.5 2.4,2.9 2.7,2.6 3.2,1.9 4.5,2.1 3.1,0.6 2.9,1.5 3.4,1 2.3,-0.2 V 122 l 1.3,-1.1 2.1,-1.3 0.3,1.1 0.3,1.8 -2.3,0.5 -0.3,2.1 1.8,1.5 1.1,2.4 0.6,1.9 1.5,-0.2 0.2,-1.3 -1,-1.3 -0.5,-3.2 0.8,-1.8 -0.6,-1.5 V 119 l 1.8,-3.6 -1.1,-2.6 -2.4,-4.8 0.3,-0.8 z m -9.5,5.9 2,-0.2 0.5,1.4 1.5,-1.6 h 2.3 l 0.8,1.5 -1.5,1.7 0.6,0.8 -0.7,2 -1.4,0.4 c 0,0 -0.9,0.1 -0.9,-0.2 0,-0.3 1.5,-2.6 1.5,-2.6 l -1.7,-0.6 -0.3,1.5 -0.7,0.6 -1.5,-2.3 z" />
        <path
           id="TX"
           class="state"
           fill="#000000"
           d="m 531.1,433.4 22.7,1.1 31.1,1.1 -2.3,23.5 -0.3,18.2 0.1,2.1 4.3,3.8 1.7,0.8 1.8,0.3 0.7,-1.3 0.9,0.9 1.7,0.5 1.6,-0.7 1.1,0.4 -0.3,3.4 4.3,1 2.7,0.8 4,0.5 2.2,1.8 3.2,-1.6 2.8,0.4 2,2.8 1.1,0.3 -0.2,2 3.1,1.2 2.8,-1.8 1.5,0.4 2.4,0.2 0.4,1.9 4.6,2 2.7,-0.2 2,-4.1 h 0.3 l 1.1,1.9 4.4,1 3.3,1.2 3.3,0.8 2.1,-0.8 0.8,-2.5 h 3.7 l 1.9,0.8 3.1,-1.6 h 0.7 l 0.4,1.1 h 4.3 l 2.4,-1.3 1.7,0.3 1.4,1.9 2.9,1.7 3.5,1.1 2.7,1.4 2.4,1.6 3.3,-0.9 1.9,1 0.5,10.1 0.3,9.7 0.7,9.5 0.5,4 2.7,4.6 1.1,4.1 3.9,6.3 0.5,2.9 0.5,1 -0.7,7.5 -2.7,4.4 1,2.9 -0.4,2.5 -0.8,7.3 -1.4,2.7 0.6,4.4 -5.7,1.6 -9.9,4.5 -1,1.9 -2.6,1.9 -2.1,1.5 -1.3,0.8 -5.7,5.3 -2.7,2.1 -5.3,3.2 -5.7,2.4 -6.3,3.4 -1.8,1.5 -5.8,3.6 -3.4,0.6 -3.9,5.5 -4,0.3 -1,1.9 2.3,1.9 -1.5,5.5 -1.3,4.5 -1.1,3.9 -0.8,4.5 0.8,2.4 1.8,7 1,6.1 1.8,2.7 -1,1.5 -3.1,1.9 -5.7,-3.9 -5.5,-1.1 -1.3,0.5 -3.2,-0.6 -4.2,-3.1 -5.2,-1.1 -7.6,-3.4 -2.1,-3.9 -1.3,-6.5 -3.2,-1.9 -0.6,-2.3 0.6,-0.6 0.3,-3.4 -1.3,-0.6 -0.6,-1 1.3,-4.4 -1.6,-2.3 -3.2,-1.3 -3.4,-4.4 -3.6,-6.6 -4.2,-2.6 0.2,-1.9 -5.3,-12.3 -0.8,-4.2 -1.8,-1.9 -0.2,-1.5 -6,-5.3 -2.6,-3.1 v -1.1 l -2.6,-2.1 -6.8,-1.1 -7.4,-0.6 -3.1,-2.3 -4.5,1.8 -3.6,1.5 -2.3,3.2 -1,3.7 -4.4,6.1 -2.4,2.4 -2.6,-1 -1.8,-1.1 -1.9,-0.6 -3.9,-2.3 v -0.6 l -1.8,-1.9 -5.2,-2.1 -7.4,-7.8 -2.3,-4.7 v -8.1 l -3.2,-6.5 -0.5,-2.7 -1.6,-1 -1.1,-2.1 -5,-2.1 -1.3,-1.6 -7.1,-7.9 -1.3,-3.2 -4.7,-2.3 -1.5,-4.4 -2.6,-2.9 -1.9,-0.5 -0.6,-4.7 8,0.7 29,2.7 29,1.6 2.3,-23.8 3.9,-55.6 1.6,-18.7 h 1.4 m 99.4,234.1 -0.6,-7.1 -2.7,-7.2 -0.6,-7 1.5,-8.2 3.3,-6.9 3.5,-5.4 3.2,-3.6 0.6,0.2 -4.8,6.6 -4.4,6.5 -2,6.6 -0.3,5.2 0.9,6.1 2.6,7.2 0.5,5.2 0.2,1.5 z" />
        <path
           id="CA"
           class="state"
           fill="#000000"
           d="m 310.7,486.8 3.8,-0.5 1.5,-2 0.7,-1.9 -3.2,-0.1 -1.1,-1.8 0.8,-1.7 v -6.2 l 2.2,-1.3 2.7,-2.6 0.4,-4.9 1.6,-3.5 1.9,-2.1 3.3,-1.7 1.3,-0.7 0.8,-1.5 -0.9,-0.9 -1,-1.5 -0.9,-5.3 -2.9,-5.2 0.1,-2.8 -2.2,-3.2 -15,-23.2 -19.4,-28.7 -22.4,-33 -12.7,-19.5 1.8,-7.2 6.8,-25.9 8.1,-31.4 -12.4,-3.3 -13.5,-3.4 -12.6,-4.1 -7.5,-2.1 -11.4,-3 -7.1,-2.4 -1.6,4.7 -0.2,7.4 -5.2,11.8 -3.1,2.6 -0.3,1.1 -1.8,0.8 -1.5,4.2 -0.8,3.2 2.7,4.2 1.6,4.2 1.1,3.6 -0.3,6.5 -1.8,3.1 -0.6,5.8 -1,3.7 1.8,3.9 2.7,4.5 2.3,4.8 1.3,4 -0.3,3.2 -0.3,0.5 v 2.1 l 5.7,6.3 -0.5,2.4 -0.6,2.3 -0.6,1.9 0.2,8.2 2.1,3.7 1.9,2.6 2.7,0.5 1,2.7 -1.1,3.6 -2.1,1.6 h -1.1 l -0.8,3.9 0.5,2.9 3.2,4.4 1.6,5.3 1.5,4.7 1.3,3.1 3.4,5.8 1.5,2.6 0.5,2.9 1.6,1 v 2.4 l -0.8,1.9 -1.8,7.1 -0.5,1.9 2.4,2.7 4.2,0.5 4.5,1.8 3.9,2.1 h 2.9 l 2.9,3.1 2.6,4.8 1.1,2.3 3.9,2.1 4.8,0.8 1.5,2.1 0.6,3.2 -1.5,0.6 0.3,1 3.2,0.8 2.7,0.2 2.9,4.7 3.9,4.2 0.8,2.3 2.6,4.2 0.3,3.2 v 9.4 l 0.5,1.8 10,1.5 19.7,2.7 z m -87.9,-49.8 1.3,1.5 -0.2,1.3 -3.2,-0.1 -0.6,-1.2 -0.6,-1.5 z m 1.9,0 1.2,-0.6 3.6,2.1 3.1,1.2 -0.9,0.6 -4.5,-0.2 -1.6,-1.6 z m 20.7,19.8 1.8,2.3 0.8,1 1.5,0.6 0.6,-1.5 -1,-1.8 -2.7,-2 -1.1,0.2 v 1.2 z m -1.4,8.7 1.8,3.2 1.2,1.9 -1.5,0.2 -1.3,-1.2 c 0,0 -0.7,-1.5 -0.7,-1.9 0,-0.4 0,-2.2 0,-2.2 z" />
        <path
           id="AZ"
           class="state"
           fill="#000000"
           d="m 311.7,487.5 -2.6,2.2 -0.3,1.5 0.5,1 18.9,10.7 12.1,7.6 14.7,8.6 16.8,10 12.3,2.4 25.1,2.7 2.5,-12.5 3.8,-27.2 7,-52.9 4.3,-31 -24.6,-3.7 -27.2,-4.6 -33.4,-6.3 -2.9,18.1 -0.5,0.5 -1.7,2.6 -2.5,-0.1 -1.3,-2.7 -2.7,-0.3 -0.9,-1.1 h -0.9 l -0.9,0.6 -1.9,1 -0.1,7 -0.2,1.7 -0.6,12.6 -1.5,2.2 -0.6,3.3 2.7,4.9 1.3,5.8 0.8,1 1,0.6 -0.1,2.3 -1.6,1.4 -3.4,1.7 -1.9,1.9 -1.5,3.7 -0.6,4.9 -2.9,2.7 -2.1,0.7 -0.1,5.8 -0.5,1.7 0.5,0.8 3.7,0.6 -0.6,2.7 -1.5,2.2 z" />
        <path
           id="NV"
           class="state"
           fill="#000000"
           d="m 314.7,277.6 21,4.5 9.7,1.9 9.3,1.8 6.6,1.6 -0.6,5.9 -3.5,17.3 -4.1,20 -1.9,9.7 -2.2,13.3 -3.2,16.4 -3.5,15.7 -2,10.2 -2.5,16.8 -0.5,1.1 -1.1,2.5 -1.9,-0.1 -1.1,-2.7 -2.7,-0.5 -1.4,-1 -2,0.3 -0.9,0.7 -1.3,1.3 -0.4,7 -0.5,1.7 -0.4,12.1 -1.3,1.7 -1.9,-2.3 -14.5,-22.7 -19.4,-29 -22.9,-33.8 -12.4,-18.6 1.6,-6.6 7,-25.9 7.9,-31.3 33.6,8.1 13.7,3" />
        <path
           id="UT"
           class="state"
           fill="#000000"
           d="m 427,409.3 -24.6,-3.5 -26.6,-4.9 -33.8,-6 1.6,-9.2 3.2,-15.2 3.2,-16.5 2.2,-13.6 1.9,-8.9 3.8,-20.5 3.5,-17.5 1.1,-5.6 12.7,2.3 12,2.1 10.3,1.8 8.3,1.4 3.7,0.5 -1.5,10.6 -2.3,13.2 7.8,0.9 16.4,1.8 8.2,0.9 -2.1,22 -3.2,22.6 -3.8,27.8 -1.7,11.1 z" />
        <path
           id="CO"
           class="state"
           fill="#000000"
           d="m 552.6,356.8 1.4,-21.3 -32.1,-3.1 -24.5,-2.7 -37.3,-4.1 -20.7,-2.5 -2.6,22.2 -3.2,22.4 -3.8,28 -1.5,11.1 -0.3,2.8 33.9,3.8 37.7,4.3 32,3.2 16.6,0.8" />
        <path
           id="NM"
           class="state"
           fill="#000000"
           d="m 456.7,531 -0.7,-6.1 8.6,0.5 29.5,3.1 28.4,1.4 2,-22.3 3.7,-55.9 1.1,-19.4 2,0.3 v -11.1 l -32.2,-2.4 -36.9,-4.4 -34.5,-4.1 -4.2,30.8 -7,53.2 -3.8,26.9 -2,13.3 15.5,2 1.3,-10 16.7,2.6 z" />
        <path
           id="OR"
           class="state"
           fill="#000000"
           d="m 314.3,276.7 4.3,-17.9 4.7,-17.9 1.1,-4.2 2.4,-5.6 -0.6,-1.2 h -2.5 l -1.3,-1.7 0.5,-1.5 0.5,-3.2 4.5,-5.5 1.8,-1.1 1.1,-1.1 1.5,-3.6 4,-5.7 3.6,-3.9 0.2,-3.5 -3.3,-2.5 -1.2,-4.5 -13.2,-3.7 -15.1,-3.5 -15.4,0.1 -0.5,-1.4 -5.5,2.1 -4.5,-0.6 -2.4,-1.6 -1.3,0.7 -4.7,-0.2 -1.7,-1.4 -5.3,-2.1 -0.8,0.1 -4.3,-1.5 -1.9,1.8 -6.2,-0.3 -5.9,-4.1 0.7,-0.8 0.2,-7.8 -2.3,-3.9 -4.1,-0.6 -0.7,-2.5 -2.4,-0.5 -5.8,2.1 -2.3,6.5 -3.2,10 -3.2,6.5 -5,14.1 -6.5,13.6 -8.1,12.6 -1.9,2.9 -0.8,8.6 -1.3,6 2.7,3.5 6.7,2.3 11.6,3.3 7.9,2.5 12.4,3.6 13.3,3.6 13.2,3.6" />
        <path
           id="ND"
           class="state"
           fill="#000000"
           d="m 645.3,227.7 -0.4,-7.5 -2,-7.3 -1.8,-13.6 -0.5,-9.8 -2,-3.1 -1.6,-5.4 v -10.3 l 0.7,-3.9 -2.1,-5.5 -28.4,-0.6 -18.6,-0.6 -26.5,-1.3 -24.9,-1.9 -1.3,14.2 -1.4,15.1 -2.3,24.9 -0.5,11 56.8,3.8 z" />
        <path
           id="SD"
           class="state"
           fill="#000000"
           d="m 646.8,303.2 -1,-1.1 -1.5,-3.6 1.8,-3.7 1.1,-5.6 -2.6,-2.1 -0.3,-2.7 0.6,-3 2.2,-0.8 0.3,-5.7 -0.1,-30.1 -0.6,-3 -4.1,-3.6 -1,-2 v -1.9 l 1.9,-1.3 1.5,-1.9 0.2,-2.7 -57.4,-1.6 -56.2,-3.9 -0.8,5.3 -1.6,15.9 -1.3,17.9 -1.6,24.6 16,1 19.6,1.1 18,1.3 23.8,1.3 10.7,-0.8 2.9,2.3 4.3,3 1,0.8 3.5,-0.9 4,-0.3 2.7,-0.1 3.1,1.2 4.5,1.4 3.1,1.8 0.6,1.9 0.9,1.9 0.7,-0.5 z" />
        <path
           id="NE"
           class="state"
           fill="#000000"
           d="m 658.2,347 1.4,2.7 0.1,2.1 2.4,3.7 2.7,3.2 h -5 l -43.5,-0.9 -40.8,-0.9 -21.2,-1 1.1,-21.3 -33.4,-2.7 4.3,-44 15.5,1 20.2,1.1 17.8,1.1 23.8,1.1 10.7,-0.5 2.1,2.3 4.8,3 1.1,0.9 4.3,-1.4 3.9,-0.5 2.7,-0.2 1.8,1.4 5,1.6 3,1.6 0.5,1.6 0.9,2.1 h 1.8 0.8 l 1,5.2 2.7,8 1.2,4.6 2.1,3.8 0.5,4.9 1.4,4.3 0.5,6.5" />
        <path
           id="IA"
           class="state"
           fill="#000000"
           d="m 740.6,301.6 0.2,1.9 2.3,1.1 1.1,1.3 0.3,1.3 3.9,3.2 0.7,2.2 -0.8,2.9 -1.5,3.5 -0.8,2.7 -2.2,1.6 -1.7,0.6 -5.5,1.5 -0.7,2.3 -0.8,2.3 0.6,1.4 1.7,1.7 v 3.7 l -2.2,1.6 -0.5,1.5 v 2.5 l -1.5,0.5 -1.7,1.4 -0.5,1.5 0.5,1.7 -1.4,1.2 -2.3,-2.7 -1.5,-2.6 -8.3,0.8 -10.2,0.6 -25,0.7 -13,0.2 -9.4,0.2 -1.3,0.1 -1.7,-4.5 -0.2,-6.6 -1.6,-4.1 -0.7,-5.3 -2.3,-3.7 -0.9,-4.8 -2.7,-7.5 -1.1,-5.4 -1.4,-2.2 -1.6,-2.7 1.8,-4.3 1.4,-5.7 -2.7,-2.1 -0.5,-2.7 0.9,-2.5 h 1.7 11.5 l 49.6,-0.7 19.9,-0.7 1.9,2.7 1.8,2.6 0.5,0.8 -1.8,2.7 0.5,4.2 2.5,3.9 3,1.8 2.4,0.2 z" />
        <path
           id="MS"
           class="state"
           fill="#000000"
           d="m 798.6,567 -0.3,1.3 h -5.2 l -1.5,-0.8 -2.1,-0.3 -6.8,1.9 -1.8,-0.8 -2.6,4.2 -1.1,0.8 -1.1,-2.5 -1.1,-3.9 -3.4,-3.2 1.1,-7.5 -0.7,-0.9 -1.8,0.2 -8.2,0.7 -24.2,0.7 -0.5,-1.6 0.7,-8 3.4,-6.2 5.3,-9.1 -0.9,-2.1 h 1.1 l 0.7,-3.2 -2.3,-1.8 0.2,-1.8 -2.1,-4.6 -0.3,-5.3 1.4,-2.7 -0.4,-4.3 -1.4,-3 1.4,-1.4 -1.4,-2.1 0.5,-1.8 0.9,-6.2 3,-2.7 -0.7,-2.1 3.7,-5.3 2.7,-0.9 v -2.5 l -0.7,-1.4 2.7,-5.3 2.7,-1.1 0.1,-3.4 8.7,-0.1 24.1,-1.9 4.6,-0.2 v 6.4 l 0.2,16.7 -0.8,31 -0.2,14.1 2.7,18.8 z" />
        <path
           id="IN"
           class="state"
           fill="#000000"
           d="m 792.4,400.9 0.1,-2.9 0.5,-4.5 2.3,-2.9 1.8,-3.9 2.6,-4.2 -0.5,-5.8 -1.8,-2.7 -0.3,-3.2 0.8,-5.5 -0.5,-7 -1.3,-16 -1.3,-15.4 -1,-11.7 3.1,0.9 1.5,1 1.1,-0.3 2.1,-1.9 2.8,-1.6 5.1,-0.2 22,-2.3 5.6,-0.5 1.5,16 4.3,36.8 0.6,5.8 -0.5,2.1 1.2,1.8 0.1,1.4 -2.5,1.6 -3.5,1.6 -3.2,0.6 -0.6,4.9 -4.6,3.3 -2.8,4 0.3,2.4 -0.6,1.5 h -3.3 l -1.6,-1.6 -2.5,1.3 -2.7,1.5 0.2,3.1 -1.2,0.3 -0.5,-1 -2.2,-1.5 -3.3,1.3 -1.6,3 -1.4,-0.8 -1.5,-1.6 -4.5,0.5 -5.6,1 z" />
        <path
           id="IL"
           class="state"
           fill="#000000"
           d="M 791.8,401.6 V 398 l 0.3,-4.9 2.4,-3.1 1.8,-3.8 2.6,-3.9 -0.4,-5.3 -2,-3.5 -0.1,-3.3 0.7,-5.3 -0.8,-7.2 -1.1,-15.8 -1.3,-15 -0.9,-11.6 -0.3,-0.9 -0.8,-2.6 -1.3,-3.7 -1.6,-1.8 -1.5,-2.6 -0.2,-5.5 -9.9,1.3 -27.2,1.7 -8.7,-0.4 0.2,2.4 2.3,0.7 0.9,1.1 0.5,1.8 3.9,3.4 0.7,2.3 -0.7,3.4 -1.8,3.7 -0.7,2.5 -2.3,1.8 -1.8,0.7 -5.3,1.4 -0.7,1.8 -0.7,2.2 0.7,1.4 1.8,1.6 -0.2,4.1 -1.8,1.6 -0.7,1.6 v 2.7 l -1.8,0.5 -1.6,1.1 -0.2,1.4 0.2,2.1 -1.7,1.3 -1,2.8 0.5,3.7 2.3,7.3 7.3,7.5 5.5,3.7 -0.2,4.3 0.9,1.4 6.4,0.5 2.7,1.4 -0.7,3.7 -2.3,5.9 -0.7,3.2 2.3,3.9 6.4,5.3 4.6,0.7 2.1,5 2.1,3.2 -0.9,3 1.6,4.1 1.8,2.1 1.9,-0.8 0.7,-2.2 2,-1.4 3.2,-1.1 3.1,1.2 2.9,1.1 0.8,-0.2 -0.1,-1.2 -1.1,-2.8 0.4,-2.4 2.3,-1.6 2.4,-1 1.2,-0.4 -0.6,-1.3 -0.8,-2.2 1.2,-1.3 z" />
        <path
           id="MN"
           class="state"
           fill="#000000"
           d="m 645.9,228.5 -0.5,-8.5 -1.8,-7.3 -1.8,-13.5 -0.5,-9.8 -1.8,-3.4 -1.6,-5 v -10.3 l 0.7,-3.9 -1.8,-5.5 h 30.1 l 0.3,-8.2 0.6,-0.2 2.3,0.5 1.9,0.8 0.8,5.5 1.5,6.1 1.6,1.6 h 4.8 l 0.3,1.5 6.3,0.3 v 2.1 h 4.8 l 0.3,-1.3 1.1,-1.1 2.3,-0.6 1.3,1 h 2.9 l 3.9,2.6 5.3,2.4 2.4,0.5 0.5,-1 1.5,-0.5 0.5,2.9 2.6,1.3 0.5,-0.5 1.3,0.2 v 2.1 l 2.6,1 h 3.1 l 1.6,-0.8 3.2,-3.2 2.6,-0.5 0.8,1.8 0.5,1.3 h 1 l 1,-0.8 8.9,-0.3 1.8,3.1 h 0.6 l 0.7,-1.1 4.4,-0.4 -0.6,2.3 -3.9,1.8 -9.2,4.1 -4.8,2 -3.1,2.6 -2.4,3.6 -2.3,3.9 -1.8,0.8 -4.5,5 -1.3,0.2 -3.8,2.9 -2.8,3.2 -0.2,3 0.2,7.8 -1.6,1.6 -5.2,3.8 -1.8,5.7 2.5,3.6 0.5,2.5 -1.1,3 -0.2,3.7 0.5,7.1 3.4,4.1 h 3 l 2.5,2.3 3.2,1.4 3.7,5 7.1,5 1.8,2.1 0.2,5.5 -20.6,0.7 -60.2,0.5 -0.3,-35.7 -0.5,-3 -4.1,-3.4 -1.1,-1.8 v -1.6 l 2.1,-1.6 1.4,-1.4 z" />
        <path
           id="WI"
           class="state"
           fill="#000000"
           d="m 786.9,297.2 0.4,-3 -1.6,-4.5 -0.6,-6.1 -1.1,-2.4 1,-3.1 0.8,-2.9 1.5,-2.6 -0.6,-3.4 -0.6,-3.6 0.5,-1.8 1.9,-2.4 0.2,-2.7 -0.8,-1.3 0.6,-2.6 0.5,-3.2 2.7,-5.7 2.9,-6.8 0.2,-2.3 -0.3,-1 -0.8,0.5 -4.2,6.3 -2.7,4 -1.9,1.8 -0.8,2.3 -1.5,0.8 -1.1,1.9 -1.5,-0.3 -0.2,-1.8 1.3,-2.4 2.1,-4.7 1.8,-1.6 1.1,-2.3 -1.6,-0.9 -1.4,-1.4 -1.6,-10.3 -3.7,-1.1 -1.4,-2.3 -12.6,-2.7 -2.5,-1.1 -8.2,-2.3 -8.2,-1.1 -4.2,-5.4 -0.5,1.3 -1.1,-0.2 -0.6,-1.1 -2.7,-0.8 -1.1,0.2 -1.8,1 -1,-0.6 0.6,-1.9 1.9,-3.1 1.1,-1.1 -1.9,-1.5 -2.1,0.8 -2.9,1.9 -7.4,3.2 -2.9,0.6 -2.9,-0.5 -1,-0.9 -2.1,2.8 -0.2,2.7 v 8.5 l -1.1,1.6 -5.3,3.9 -2.3,5.9 0.5,0.2 2.5,2.1 0.7,3.2 -1.8,3.2 v 3.9 l 0.5,6.6 3,3 h 3.4 l 1.8,3.2 3.4,0.5 3.9,5.7 7.1,4.1 2.1,2.7 0.9,7.4 0.7,3.3 2.3,1.6 0.2,1.4 -2.1,3.4 0.2,3.2 2.5,3.9 2.5,1.1 3,0.5 1.3,1.4 h 9.2 l 26.1,-1.5 z" />
        <path
           id="MO"
           class="state"
           fill="#000000"
           d="m 729.8,349.5 -2.5,-3.1 -1.1,-2.3 -7.8,0.7 -9.8,0.5 -25.4,0.9 -13.5,0.2 -7.9,0.1 -2.3,0.1 1.3,2.5 -0.2,2.3 2.5,3.9 3.1,4.1 3.1,2.7 2.3,0.2 1.4,0.9 v 3 l -1.8,1.6 -0.5,2.3 2.1,3.4 2.5,3 2.5,1.8 1.4,11.7 -0.7,35.3 0.2,4.7 0.5,5.4 23.4,-0.1 23.2,-0.7 20.8,-0.8 11.7,-0.2 2.2,3.4 -0.7,3.3 -3.1,2.4 -0.6,1.8 5.4,0.5 3.9,-0.7 1.7,-5.5 0.7,-5.9 2.3,-2 1.7,-1.5 2.1,-1 0.1,-2.9 0.6,-1.7 -1,-1.7 -2.7,0.1 -2.2,-2.6 -1.4,-4.2 0.8,-2.5 -1.9,-3.4 -1.8,-4.6 -4.8,-0.8 -7,-5.6 -1.7,-4.1 0.8,-3.2 2.1,-6.1 0.5,-2.9 -1.9,-1 -6.9,-0.8 -1,-1.7 -0.1,-4.2 -5.5,-3.4 -7,-7.8 -2.3,-7.3 -0.2,-4.2 z" />
        <path
           id="AR"
           class="state"
           fill="#000000"
           d="m 765,445 -3.8,0.9 -6.2,-0.5 0.7,-3 3.2,-2.7 0.5,-2.3 -1.8,-3 -11,0.5 -20.8,0.9 -23.3,0.7 -23.5,0.5 1.6,6.9 v 8.2 l 1.4,11 0.2,37.8 2.3,1.9 3,-1.4 2.7,1.1 0.4,10.3 22.9,-0.1 18.9,-0.8 10.1,-0.2 1.1,-2.1 -0.3,-3.5 -1.8,-3 1.6,-1.5 -1.6,-2.5 0.7,-2.5 1.4,-5.6 2.5,-2.1 -0.7,-2.3 3.7,-5.4 2.7,-1.4 -0.1,-1.5 -0.3,-1.8 2.9,-5.6 2.4,-1.3 0.4,-3.4 1.8,-1.2 0.9,-4.2 -1.3,-4 4,-2.4 0.6,-2 1.2,-4.3 z" />
        <path
           id="OK"
           class="state"
           fill="#000000"
           d="m 549.3,422.6 -10.7,-0.5 -6.4,-0.5 0.3,0.2 -0.7,10.4 22,1.4 32.1,1.3 -2.3,24.4 -0.5,17.8 0.2,1.6 4.3,3.7 2.1,1.1 0.7,-0.2 0.7,-2.1 1.4,1.8 h 2.1 v -1.4 l 2.7,1.4 -0.5,3.9 4.1,0.2 2.5,1.1 4.1,0.7 2.5,1.8 2.3,-2.1 3.4,0.7 2.5,3.4 h 0.9 v 2.3 l 2.3,0.7 2.3,-2.3 1.8,0.7 h 2.5 l 0.9,2.5 4.8,1.8 1.4,-0.7 1.8,-4.1 h 1.1 l 1.1,2.1 4.1,0.7 3.7,1.4 3,0.9 1.8,-0.9 0.7,-2.5 h 4.3 l 2.1,0.9 2.7,-2.1 h 1.1 l 0.7,1.6 h 4.1 l 1.6,-2.1 1.8,0.5 2.1,2.5 3.2,1.8 3.2,0.9 1.9,1.1 -0.4,-37.2 -1.4,-11 -0.2,-8.9 -1.4,-6.5 -0.8,-7.2 -0.1,-3.8 -12.1,0.3 -46.4,-0.5 -45,-2.1 z" />
        <path
           id="KS"
           class="state"
           fill="#000000"
           d="m 677.4,425.1 -12.6,0.2 -46.1,-0.5 -44.6,-2.1 -24.6,-1.3 4.1,-64.7 21.8,0.8 40.5,1.4 44.1,0.5 h 5.1 l 3.2,3.2 2.8,0.2 0.9,1.1 v 2 l -1.8,1.6 -0.5,2.6 2.2,3.6 2.5,3.1 2.5,2 1.1,11.2 z" />
        <path
           id="LA"
           class="state"
           fill="#000000"
           d="m 776.2,573 -1,-2.6 -1.1,-3.1 -3.3,-3.5 0.9,-6.8 -0.1,-1.1 -1.3,0.3 -8.2,0.9 -25,0.5 -0.7,-2.4 0.9,-8.5 3.3,-5.9 5,-8.7 -0.6,-2.4 1.3,-0.7 0.5,-2 -2.3,-2.1 -0.1,-1.9 -1.8,-4.3 -0.5,-5.9 -9.7,0.1 -19.2,0.9 H 691 v 9.6 l 0.7,9.4 0.7,3.9 2.5,4.1 0.9,5 4.3,5.5 0.2,3.2 0.7,0.7 -0.7,8.5 -3,5 1.6,2.1 -0.7,2.5 -0.7,7.3 -1.4,3.2 0.1,3.6 4.7,-1.5 8.1,-0.3 10.3,3.6 6.5,1.1 3.7,-1.5 3.2,1.1 3.2,1 0.8,-2.1 -3.2,-1.1 -2.6,0.5 -2.7,-1.6 c 0,0 0.2,-1.3 0.8,-1.5 0.6,-0.2 3.1,-1 3.1,-1 l 1.8,1.5 1.8,-1 3.2,0.6 1.5,2.4 0.3,2.3 4.5,0.3 1.8,1.8 -0.8,1.6 -1.3,0.8 1.6,1.6 8.4,3.6 3.6,-1.3 1,-2.4 2.6,-0.6 1.8,-1.5 1.3,1 0.8,2.9 -2.3,0.8 0.6,0.6 3.4,-1.3 2.3,-3.4 0.8,-0.5 -2.1,-0.3 0.8,-1.6 -0.2,-1.5 2.1,-0.5 1.1,-1.3 0.6,0.8 c 0,0 -0.2,3.1 0.6,3.1 0.8,0 4.2,0.6 4.2,0.6 l 4,1.9 1,1.5 h 2.9 l 1.1,1 2.3,-3.1 V 593 h -1.3 l -3.4,-2.7 -5.8,-0.8 -3.2,-2.3 1.1,-2.7 2.3,0.3 0.2,-0.6 -1.8,-1 v -0.5 h 3.2 l 1.8,-3.1 -1.3,-1.9 -0.3,-2.7 -1.5,0.2 -1.9,2.1 -0.6,2.6 -3.1,-0.6 -1,-1.8 1.8,-1.9 2,-1.8 z" />
        <path
           id="VA"
           class="state"
           fill="#000000"
           d="m 1002.9,369.2 -0.1,-1.9 6.5,-2.5 -0.8,3.2 -2.9,3.8 -0.4,4.6 0.5,3.4 -1.8,5 -2.2,1.9 -1.5,-4.6 0.4,-5.4 1.6,-4.2 z m 2.3,28.3 -58.2,12.6 -37.4,5.3 -6.7,-0.4 -2.6,1.9 -7.3,0.2 -8.4,1 -8.9,1 8.5,-4.9 v -2.1 l 1.5,-2.1 10.6,-11.5 3.9,4.5 3.8,1 2.5,-1.1 2.2,-1.3 2.5,1.3 3.9,-1.4 1.9,-4.6 2.6,0.5 2.9,-2.1 1.8,0.5 2.8,-3.7 0.3,-2.1 -1,-1.3 1,-1.9 5.3,-12.3 0.6,-5.7 1.2,-0.5 2.2,2.4 3.9,-0.3 1.9,-7.6 2.8,-0.6 1,-2.7 2.6,-2.3 1.3,-2.3 1.5,-3.4 0.1,-5.1 9.8,3.8 c 0.7,0.3 0.7,-4.8 0.7,-4.8 l 4.1,1.4 -0.5,2.6 8.2,2.9 1.3,1.8 -0.9,3.7 -1.3,1.3 -0.5,1.7 0.5,2.4 2,1.3 3.9,1.4 2.9,1 4.9,0.9 2.2,2.1 3.2,0.4 0.9,1.2 -0.4,4.7 1.4,1.1 -0.5,1.9 1.2,0.8 -0.2,1.4 -2.7,-0.1 0.1,1.6 2.3,1.5 0.1,1.4 1.8,1.8 0.5,2.5 -2.6,1.4 1.6,1.5 5.8,-1.7 z" />
        <g
           id="DC">
          <path
             id="path58"
             fill="#000000"
             d="m 975.8,353.8 -1.1,-1.6 -1,-0.8 1.1,-1.6 2.2,1.5 z" />
          <circle
             id="circle60"
             fill="#000000"
             stroke="#ffffff"
             stroke-width="1.5"
             cx="975.29999"
             cy="351.79999"
             r="5" />
        </g>
      </g>
      <path
         id="path67"
         fill="none"
         stroke="currentcolor"
         stroke-width="2"
         d="m 385,593 v 55 M 174,525 h 144 l 67,68 h 86 l 53,54 v 46" />
    </g>
  </g>
</svg>
