<svg id="alaska" xmlns="http://www.w3.org/2000/svg" preserveAspectRatio="xMinYMin meet" viewBox="0 0 209.3 209.3">
  <path fill="currentColor" transform="translate(0, 26.950000000000003)" d="M152.1 20.2L151.8 105.6L153.4 106.6L156.5 106.8L158.0 105.7H160.6L160.8 108.6L167.8 115.4L168.3 118.0L171.7 116.1L172.3 115.9L172.6 112.8L174.1 111.2L175.2 111.0L177.1 109.5L180.2 111.6L180.8 114.5L182.7 115.6L183.8 118.0L187.7 119.8L191.1 125.8L193.8 129.7L196.1 132.4L197.6 136.1L202.6 137.9L207.8 140.0L208.8 144.4L209.3 147.5L208.3 150.9L206.5 153.2L204.9 152.4L203.4 149.3L200.7 147.8L198.9 146.7L198.1 147.5L199.6 150.2L199.8 153.9L198.7 154.4L196.8 152.5L194.7 151.2L195.2 152.8L196.5 154.6L195.7 155.4L194.7 153.1L196.5 151.2L195.0 149.7V144.7H194.2L193.4 148.1L192.3 148.6L191.3 144.9L190.7 141.2L189.9 140.7L190.2 146.4V147.5L188.7 146.2L185.1 140.2L183.0 139.7L182.4 136.0L180.8 133.1L179.2 132.0V129.7L181.3 128.4L180.8 128.1L178.2 128.7L174.8 126.3L172.2 123.4L167.4 120.8L163.4 118.2L164.7 115.0V113.4L162.9 115.0L160.0 116.1L156.3 115.0L150.6 112.6H145.1L144.5 113.1L138.0 109.2L135.9 108.9L133.2 103.1L129.6 103.4L126.0 104.9L126.5 109.4L127.6 106.5L128.6 106.8L127.1 111.2L130.3 108.5L130.9 110.1L127.0 114.5L125.7 114.2L125.2 112.3L123.9 111.5L122.6 112.6L119.9 110.8L116.8 112.9L115.0 115.0L111.6 117.1L106.9 116.9L106.4 114.8L110.1 114.2V112.9L107.8 112.3L108.8 109.9L111.1 106.0V104.2L111.3 103.4L115.7 101.1L116.7 102.4H119.4L118.1 99.8L114.4 99.5L109.4 102.2L107.0 105.6L105.2 108.2L104.1 110.5L99.9 112.0L96.8 114.6L96.5 116.2L98.8 117.2L99.6 119.3L96.9 122.5L90.4 126.7L82.6 130.9L80.5 132.0L75.2 133.1L69.9 135.4L71.7 136.7L70.2 138.2L69.7 139.3L67.0 138.3L63.8 138.5L63.0 140.8H62.0L62.3 138.4L58.7 139.7L55.8 140.7L52.4 139.4L49.5 141.3H46.3L44.2 142.6L42.6 143.4L40.5 143.1L37.9 142.0L35.6 142.6L34.6 143.6L33.0 142.5V140.6L36.1 139.3L42.4 139.9L46.8 138.3L48.9 136.2L51.8 135.6L53.6 134.8L56.3 135.0L57.9 136.3L58.9 136.0L61.2 133.3L64.3 132.3L67.7 131.7L69.0 131.4L69.6 131.9H70.4L71.7 128.2L75.7 126.7L77.6 123.0L79.9 118.5L81.5 117.0L81.8 114.4L80.2 115.7L76.8 116.3L76.2 113.9L74.9 113.6L73.9 114.6L73.7 117.5L72.2 117.3L70.7 111.5L69.4 112.8L68.3 112.3L68.0 110.4L64.0 110.6L61.9 111.7L59.3 111.4L60.8 109.9L61.3 107.3L60.7 105.4L62.2 104.4L63.5 104.2L62.9 102.4V98.0L61.9 97.0L61.1 98.5H55.0L53.5 97.2L52.9 93.3L50.8 89.7V88.7L52.9 87.9L53.1 85.8L54.2 84.7L53.4 84.2L52.1 84.7L51.0 82.0L52.0 77.0L56.5 73.8L59.1 72.2L61.0 68.5L63.7 67.2L66.3 68.3L66.6 70.7L69.0 70.4L72.2 68.0L73.8 68.6L74.8 69.2H76.4L78.7 67.9L79.5 63.5L78.4 61.6L75.8 62.4L72.6 63.2L70.7 62.7L67.1 60.9L62.1 60.7L58.5 57.0L59.0 53.1L59.6 50.7L57.5 48.9L55.6 45.2L56.1 44.4L62.9 43.9H65.0L66.0 44.9H66.6L66.4 43.3L70.3 42.7L72.9 43.0L74.4 44.1L72.9 46.2L72.4 47.7L75.1 49.3L80.1 51.1L81.9 50.1L79.6 45.7L78.6 42.5L79.6 41.7L76.2 39.8L75.7 38.7L76.2 37.1L75.4 33.2L72.5 28.5L70.1 24.3L73.0 22.4H76.2L78.0 23.0L82.2 22.8L85.9 19.2L87.0 16.1L90.7 13.7L92.3 14.7L95.0 14.1L98.7 12.0L99.8 11.8L100.8 12.6L105.3 12.4L108.0 9.3H109.1L112.7 11.7L114.6 13.8L114.1 14.9L114.7 16.0L116.3 14.4L120.2 14.7L120.5 18.4L122.4 19.9L129.5 20.5L135.8 24.7L137.3 23.7L142.5 26.3L144.6 25.7L146.5 24.9L151.3 26.8L152.1 20.2ZM37.0 49.1L39.1 54.4L38.9 55.4L36.0 55.1L34.2 51.1L32.4 49.6H30.0L29.8 47.0L31.6 44.6L32.7 47.0L34.2 48.5L37.0 49.1ZM34.4 82.6L38.1 83.4L41.8 84.4L42.6 85.4L41.0 89.1L37.9 88.9L34.5 85.3L34.4 82.6ZM13.7 68.5L14.8 71.1L15.9 72.7L14.8 73.5L12.7 70.4V68.5H13.7ZM0.0 141.6L3.4 139.3L6.8 138.3L9.4 138.6L9.9 140.2L11.8 140.7L13.7 138.8L13.4 137.2L16.1 136.6L19.0 139.2L17.9 141.0L13.5 142.1L10.8 141.6L7.1 140.5L2.7 142.0L1.1 142.3L0.0 141.6ZM48.9 137.1L50.5 139.0L52.6 137.4L51.1 136.1L48.9 137.1ZM51.8 140.1L52.9 137.8L55.0 138.1L54.2 140.0H51.8ZM75.4 138.2L76.9 140.0L77.9 138.9L77.1 137.0L75.4 138.2ZM84.2 125.7L85.3 131.5L88.2 132.3L93.2 129.4L97.6 126.8L96.0 124.4L96.5 122.0L94.4 123.3L91.5 122.5L93.1 121.4L95.0 122.2L98.9 120.4L99.4 118.9L97.0 118.1L97.8 116.2L95.1 118.1L90.4 121.7L85.6 124.6L84.2 125.7ZM126.5 105.9L128.9 104.4L127.9 102.6L126.1 103.6L126.5 105.9Z" />
</svg>