<svg id="arizona" xmlns="http://www.w3.org/2000/svg" preserveAspectRatio="xMinYMin meet" viewBox="0 0 138.2 138.2">
  <path fill="currentColor" transform="translate(10.099999999999994, 0)" d="M2.9 91.5L0.3 93.7L0.0 95.2L0.5 96.2L19.4 106.9L31.5 114.5L46.2 123.1L63.0 133.1L75.3 135.5L100.4 138.2L102.9 125.7L106.7 98.5L113.7 45.6L118.0 14.6L93.4 10.9L66.2 6.3L32.8 0.0L29.9 18.1L29.4 18.6L27.7 21.2L25.2 21.1L23.9 18.4L21.2 18.1L20.3 17.0H19.4L18.5 17.6L16.6 18.6L16.5 25.6L16.3 27.3L15.7 39.9L14.2 42.1L13.6 45.4L16.3 50.3L17.6 56.1L18.4 57.1L19.4 57.7L19.3 60.0L17.7 61.4L14.3 63.1L12.4 65.0L10.9 68.7L10.3 73.6L7.4 76.3L5.3 77.0L5.2 82.8L4.7 84.5L5.2 85.3L8.9 85.9L8.3 88.6L6.8 90.8L2.9 91.5Z" />
</svg>