<svg id="arkansas" xmlns="http://www.w3.org/2000/svg" preserveAspectRatio="xMinYMin meet" viewBox="0 0 86 86">
  <path fill="currentColor" transform="translate(0, 3.799999999999997)" d="M86.0 10.6L82.2 11.5L76.0 11.0L76.7 8.0L79.9 5.3L80.4 3.0L78.6 0.0L67.6 0.5L46.8 1.4L23.5 2.1L0.0 2.6L1.6 9.5V17.7L3.0 28.7L3.2 66.5L5.5 68.4L8.5 67.0L11.2 68.1L11.6 78.4L34.5 78.3L53.4 77.5L63.5 77.3L64.6 75.2L64.3 71.7L62.5 68.7L64.1 67.2L62.5 64.7L63.2 62.2L64.6 56.6L67.1 54.5L66.4 52.2L70.1 46.8L72.8 45.4L72.7 43.9L72.4 42.1L75.3 36.5L77.7 35.2L78.1 31.8L79.9 30.6L80.8 26.4L79.5 22.4L83.5 20.0L84.1 18.0L85.3 13.7L86.0 10.6Z" />
</svg>