<svg id="hawaii" xmlns="http://www.w3.org/2000/svg" preserveAspectRatio="xMinYMin meet" viewBox="0 0 113.5 113.5">
  <path fill="currentColor" transform="translate(0, 20.4)" d="M0.0 9.2L1.9 5.6L4.2 5.3L4.5 6.1L2.4 9.2H0.0ZM10.2 5.5L16.3 8.1L18.4 7.8L20.0 3.9L19.4 0.5L15.2 0.0L11.2 1.8L10.2 5.5ZM40.9 15.5L44.6 21.0L47.0 20.7L48.1 20.2L49.6 21.5L53.3 21.3L54.3 19.8L51.4 18.0L49.5 14.3L47.4 10.7L41.6 13.6L40.9 15.5ZM61.1 24.4L62.4 22.5L67.1 23.5L67.7 23.0L73.8 23.6L73.5 24.9L70.9 26.4L66.5 26.1L61.1 24.4ZM66.4 29.6L68.3 33.5L71.4 32.4L71.7 30.8L70.1 28.7L66.4 28.4V29.6ZM73.4 28.4L75.7 25.5L80.4 27.9L84.8 29.0L89.2 31.7V33.6L85.6 35.4L80.8 36.4L78.4 34.9L73.4 28.4ZM90.0 44.0L91.6 42.7L95.0 44.3L102.6 47.9L106.0 50.0L107.6 52.4L109.5 56.8L113.5 59.4L113.2 60.7L109.3 63.9L105.1 65.4L103.6 64.8L100.5 66.6L98.1 69.8L95.8 72.7L94.0 72.5L90.4 69.9L90.1 65.4L90.7 63.0L89.1 57.3L87.0 55.5L86.8 52.9L89.1 51.9L91.2 48.8L91.7 47.8L90.1 46.0L90.0 44.0Z" />
</svg>