<svg id="iowa" xmlns="http://www.w3.org/2000/svg" preserveAspectRatio="xMinYMin meet" viewBox="0 0 104.2 104.2">
  <path fill="currentColor" transform="translate(0, 18)" d="M95.7 21.1L95.9 23.0L98.2 24.1L99.3 25.4L99.6 26.7L103.5 29.9L104.2 32.1L103.4 35.0L101.9 38.5L101.1 41.2L98.9 42.8L97.2 43.4L91.7 44.9L91.0 47.2L90.2 49.5L90.8 50.9L92.5 52.6L92.5 56.3L90.3 57.9L89.8 59.4V61.9L88.3 62.4L86.6 63.8L86.1 65.3L86.6 67.0L85.2 68.2L82.9 65.5L81.4 62.9L73.1 63.7L62.9 64.3L37.9 65.0L24.9 65.2L15.5 65.4L14.2 65.5L12.5 61.0L12.3 54.4L10.7 50.3L10.0 45.0L7.7 41.3L6.8 36.5L4.1 29.0L3.0 23.6L1.6 21.4L0.0 18.7L1.8 14.4L3.2 8.7L0.5 6.6L0.0 3.9L0.9 1.4H2.6H14.1L63.7 0.7L83.6 0.0L85.5 2.7L87.3 5.3L87.8 6.1L86.0 8.8L86.5 13.0L89.0 16.9L92.0 18.7L94.4 18.9L95.7 21.1Z" />
</svg>