<svg id="louisiana" xmlns="http://www.w3.org/2000/svg" preserveAspectRatio="xMinYMin meet" viewBox="0 0 98.2 98.2">
  <path fill="currentColor" transform="translate(0, 5.700000000000003)" d="M85.2 60.2L84.2 57.6L83.1 54.5L79.8 51.0L80.7 44.2L80.6 43.1L79.3 43.4L71.1 44.3L46.1 44.8L45.4 42.4L46.3 33.9L49.6 28.0L54.6 19.3L54.0 16.9L55.3 16.2L55.8 14.2L53.5 12.1L53.4 10.2L51.6 5.9L51.1 0.0L41.4 0.1L22.2 1.0L0.0 1.0L0.0 10.6L0.7 20.0L1.4 23.9L3.9 28.0L4.8 33.0L9.1 38.5L9.3 41.7L10.0 42.4L9.3 50.9L6.3 55.9L7.9 58.0L7.2 60.5L6.5 67.8L5.1 71.0L5.2 74.6L9.9 73.1L18.0 72.8L28.3 76.4L34.8 77.5L38.5 76.0L41.7 77.1L44.9 78.1L45.7 76.0L42.5 74.9L39.9 75.4L37.2 73.8L39.0 75.3L40.8 74.3L44.0 74.9L45.5 77.3L45.8 79.6L50.3 79.9L52.1 81.7L51.3 83.3L50.0 84.1L51.6 85.7L60.0 89.3L63.6 88.0L64.6 85.6L67.2 85.0L69.0 83.5L70.3 84.5L71.1 87.4L68.8 88.2L69.4 88.8L72.8 87.5L75.1 84.1L75.9 83.6L73.8 83.3L74.6 81.7L74.4 80.2L76.5 79.7L77.6 78.4L78.2 79.2L82.2 81.1L83.2 82.6H86.1L87.2 83.6L89.5 80.5V79.0H88.2L84.8 76.3L79.0 75.5L75.8 73.2L76.9 70.5L79.2 70.8L79.4 70.2L77.6 69.2V68.7H80.8L82.6 65.6L81.3 63.7L81.0 61.0L79.5 61.2L77.6 63.3L77.0 65.9L73.9 65.3L72.9 63.5L74.7 61.6L76.7 59.8L85.2 60.2Z" />
</svg>