<svg id="maine" xmlns="http://www.w3.org/2000/svg" preserveAspectRatio="xMinYMin meet" viewBox="0 0 100.2 100.2">
  <path fill="currentColor" transform="translate(18.6, 0)" d="M58.8 40.4L60.7 42.5L63.0 46.2V48.1L60.9 52.8L59.0 53.4L55.6 56.5L50.8 62.0L49.0 62.2L48.0 63.7L45.6 65.2L44.6 66.7L46.2 68.2L45.7 68.8L45.2 71.5L43.3 71.3V69.7L43.0 68.4L41.5 68.7L39.7 65.5L37.6 66.8L38.9 68.3L39.2 69.4L38.4 70.7L38.7 73.8L38.9 75.4L37.3 78.0L34.4 78.5L34.1 81.4L28.8 84.5L27.5 85.0L25.9 83.5L22.8 87.1L23.8 90.3L22.3 91.6L22.1 96.0L21.0 102.3L18.5 101.1L18.0 98.0L14.1 96.9L13.8 94.2L6.5 70.8L2.3 57.2L3.7 57.1L5.2 57.5V54.9L6.0 49.4L8.6 44.7L10.1 40.7L8.2 38.3V32.3L9.0 31.3L9.8 28.6L9.6 27.1L9.4 22.3L11.2 17.5L14.1 8.6L16.2 4.4H17.5L18.8 4.6V5.7L20.1 8.0L22.8 8.6L23.6 7.8V6.8L27.6 3.9L29.4 2.1L30.9 2.3L36.9 4.7L38.8 5.7L47.9 35.6H53.9L54.7 37.5L54.9 42.3L57.8 44.6H58.6L58.8 44.1L58.3 43.0L58.8 40.4ZM37.9 70.6L39.4 69.1L40.8 70.2L41.4 72.6L39.7 73.5L37.9 70.6ZM44.6 64.7L46.4 66.6L47.3 65.8L46.5 64.0L44.5 64.7L44.6 64.7Z" />
</svg>