<svg id="maryland" xmlns="http://www.w3.org/2000/svg" preserveAspectRatio="xMinYMin meet" viewBox="0 0 79.3 79.3">
  <path fill="currentColor" transform="translate(0, 19.349999999999998)" d="M79.3 25.4L73.2 26.7L67.4 26.9L65.6 19.8L63.5 10.1L61.2 4.4L59.9 0.0L52.4 1.6L37.5 4.4L0.0 12.0L1.1 17.0L2.1 22.7L2.4 22.4L4.5 20.0L6.8 17.4L9.2 16.8L10.7 15.3L12.5 12.7L13.8 13.3L16.7 13.0L19.3 10.9L21.3 9.4L23.1 8.9L24.7 10.0L27.6 11.5L29.5 13.3L30.7 14.8L34.8 16.5V19.4L40.3 20.7L41.4 21.2L42.8 19.2L45.7 21.2L44.4 23.7L43.6 27.7L41.8 30.3V32.4L42.4 34.2L47.5 35.6L51.8 35.5L54.9 36.5L57.0 36.8L58.0 34.7L56.5 32.6V30.8L54.1 28.7L52.0 23.2L53.3 17.9L53.1 15.8L51.8 14.5L53.7 13.2L55.6 11.6L56.1 12.6L54.6 14.2L53.3 17.9L53.6 19.0L55.4 19.3L55.9 24.8L53.8 25.8L54.1 29.4L54.6 29.2L55.7 27.3L57.3 29.1L55.7 30.4L55.4 33.8L58.0 37.2L61.9 37.7L63.5 36.9L66.7 41.1L68.1 41.6L74.8 38.8L76.8 34.8L79.3 25.4ZM62.6 34.4L63.7 36.9L63.9 38.7L65.0 40.6L64.3 38.3L62.6 34.4Z" />
</svg>