<svg id="missouri" xmlns="http://www.w3.org/2000/svg" preserveAspectRatio="xMinYMin meet" viewBox="0 0 115.1 115.1">
  <path fill="currentColor" transform="translate(0, 7.099999999999994)" d="M70.3 5.4L67.8 2.3L66.7 0.0L58.9 0.7L49.1 1.2L23.7 2.1L10.2 2.3L2.3 2.4L0.0 2.5L1.3 5.0L1.1 7.3L3.6 11.2L6.7 15.3L9.8 18.0L12.1 18.2L13.5 19.1V22.1L11.7 23.7L11.2 26.0L13.3 29.4L15.8 32.4L18.3 34.2L19.7 45.9L19.0 81.2L19.2 85.9L19.7 91.3L43.1 91.2L66.3 90.5L87.1 89.7L98.8 89.5L101.0 92.9L100.3 96.2L97.2 98.6L96.6 100.4L102.0 100.9L105.9 100.2L107.6 94.7L108.3 88.8L110.6 86.8L112.3 85.3L114.4 84.3L114.5 81.4L115.1 79.7L114.1 78.0L111.4 78.1L109.2 75.5L107.8 71.3L108.6 68.8L106.7 65.4L104.9 60.8L100.1 60.0L93.1 54.4L91.4 50.3L92.2 47.1L94.3 41.0L94.8 38.1L92.9 37.1L86.0 36.3L85.0 34.6L84.9 30.4L79.4 27.0L72.4 19.2L70.1 11.9L69.9 7.7L70.3 5.4Z" />
</svg>