<svg id="nevada" xmlns="http://www.w3.org/2000/svg" preserveAspectRatio="xMinYMin meet" viewBox="0 0 170.2 170.2">
  <path fill="currentColor" transform="translate(30.049999999999997, 0)" d="M63.5 11.0L84.5 15.5L94.2 17.4L103.5 19.2L110.1 20.8L109.5 26.7L106.0 44.0L101.9 64.0L100.0 73.7L97.8 87.0L94.6 103.4L91.1 119.1L89.1 129.3L86.6 146.1L86.1 147.2L85.0 149.7L83.1 149.6L82.0 146.9L79.3 146.4L77.9 145.4L75.9 145.7L75.0 146.4L73.7 147.7L73.3 154.7L72.8 156.4L72.4 168.5L71.1 170.2L69.2 167.9L54.7 145.2L35.3 116.2L12.4 82.4L0.0 63.8L1.6 57.2L8.6 31.3L16.5 0.0L50.1 8.1L63.8 11.1" />
</svg>