<svg id="new-york" xmlns="http://www.w3.org/2000/svg" preserveAspectRatio="xMinYMin meet" viewBox="0 0 126.7 126.7">
  <path fill="currentColor" transform="translate(0, 14.600000000000001)" d="M84.1 82.6L83.0 81.6L80.4 81.4L78.1 79.5L76.5 73.4L73.0 73.5L70.6 70.8L51.2 75.2L8.2 83.9L0.7 85.1L0.0 78.6L1.4 77.5L2.7 76.4L3.7 74.8L5.5 73.7L7.4 71.9L7.9 70.3L10.0 67.6L11.1 66.6L10.9 65.6L9.6 62.5L7.8 62.3L5.9 56.2L8.8 54.4L13.2 52.9L17.2 51.6L20.4 51.1L26.7 50.9L28.6 52.2L30.2 52.4L32.3 51.1L34.9 50.0L40.1 49.5L42.2 47.7L44.0 44.5L45.6 42.6H47.7L49.6 41.5L49.8 39.2L48.3 37.1L48.0 35.6L49.1 33.5V32.0H47.3L45.5 31.2L44.7 30.1L44.5 27.5L50.3 22.0L50.9 21.2L52.4 18.3L55.3 13.8L58.0 10.1L60.1 7.7L62.5 5.9L65.6 4.7L71.1 3.4L74.3 3.6L78.8 2.1L86.4 0.0L86.9 5.0L89.3 11.5L90.1 16.7L89.1 20.6L91.7 25.1L92.5 27.2L91.7 30.1L94.6 31.4L95.2 31.7L98.3 42.7L97.8 47.8L97.3 58.6L98.1 64.1L98.9 67.7L100.4 75.0V83.1L99.3 85.4L101.1 87.4L101.9 89.1L100.0 90.9L100.3 92.2L101.6 91.9L103.1 90.6L105.4 88.0L106.5 87.4L108.1 88.0L110.4 88.2L118.3 84.3L121.2 81.6L122.5 80.1L126.7 81.7L123.3 85.3L119.4 88.2L112.3 93.5L109.7 94.5L103.9 96.4L99.9 97.5L98.7 97.0L98.5 93.3L99.0 90.6L98.8 88.5L96.0 86.8L91.5 85.8L87.6 84.7L84.1 82.6Z" />
</svg>