<svg id="north-carolina" xmlns="http://www.w3.org/2000/svg" preserveAspectRatio="xMinYMin meet" viewBox="0 0 155.2 155.2">
  <path fill="currentColor" transform="translate(0, 43.949999999999996)" d="M142.7 0.0L144.4 4.7L148.0 11.2L150.4 13.6L151.0 15.9L148.6 16.1L149.4 16.7L149.1 20.9L146.5 22.2L145.9 24.3L144.6 27.2L140.9 28.8L138.5 28.5L137.0 28.3L135.4 27.0L135.7 28.3V29.3H137.6L138.4 30.6L136.5 36.9H140.7L141.3 38.5L143.6 36.2L144.9 35.7L143.0 39.3L139.9 44.1H138.6L137.5 43.6L134.8 44.2L129.6 46.6L123.1 51.9L119.7 56.6L117.8 63.1L117.3 65.5L112.6 66.0L107.1 67.3L97.2 59.1L84.6 51.5L81.7 50.7L69.1 52.2L64.8 53.0L63.2 49.8L60.2 47.7L43.7 48.2L36.4 49.0L27.3 53.5L21.2 56.1L19.6 56.4L13.8 57.4L6.8 58.2L0.0 58.7L0.5 54.6L2.3 53.1L5.0 52.5L5.6 48.8L9.8 46.1L13.7 44.6L17.9 41.0L22.3 38.9L22.9 35.8L26.8 31.9L27.4 31.7L29.7 28.1L31.8 27.5L34.1 27.8L35.7 24.2L38.6 21.6L39.1 19.5V15.5L43.6 16.2L50.7 14.9L66.5 13.0L83.6 10.4L103.5 6.4L123.2 2.2L134.6 -0.6L142.7 0.0ZM146.6 33.0L149.2 30.5L152.4 27.9L153.9 27.3L154.1 25.3L153.5 19.2L152.0 16.9L151.4 15.0L152.1 14.8L154.8 20.3L155.2 24.7L155.0 28.1L151.6 29.6L148.8 32.0L147.7 33.2L146.6 33.0Z" />
</svg>