<svg id="oklahoma" xmlns="http://www.w3.org/2000/svg" preserveAspectRatio="xMinYMin meet" viewBox="0 0 149.4 149.4">
  <path fill="currentColor" transform="translate(0, 35.300000000000004)" d="M17.5 1.0L6.8 0.5L0.4 0.0L0.7 0.2L0.0 10.6L22.0 12.0L54.1 13.3L51.8 37.7L51.3 55.5L51.5 57.1L55.8 60.8L57.9 61.9L58.6 61.7L59.3 59.6L60.7 61.4H62.8V60.0L65.5 61.4L65.0 65.3L69.1 65.5L71.6 66.6L75.7 67.3L78.2 69.1L80.5 67.0L83.9 67.7L86.4 71.1H87.3V73.4L89.6 74.1L91.9 71.8L93.7 72.5H96.2L97.1 75.0L101.9 76.8L103.3 76.1L105.1 72.0H106.2L107.3 74.1L111.4 74.8L115.1 76.2L118.1 77.1L119.9 76.2L120.6 73.7H124.9L127.0 74.6L129.7 72.5H130.8L131.5 74.1H135.6L137.2 72.0L139.0 72.5L141.1 75.0L144.3 76.8L147.5 77.7L149.4 78.8L149.0 41.6L147.6 30.6L147.4 21.7L146.0 15.2L145.2 8.0L145.1 4.2L133.0 4.5L86.6 4.0L41.6 1.9L17.5 1.0Z" />
</svg>