<svg id="oregon" xmlns="http://www.w3.org/2000/svg" preserveAspectRatio="xMinYMin meet" viewBox="0 0 139.9 139.9">
  <path fill="currentColor" transform="translate(0, 11.800000000000004)" d="M114.1 116.3L118.4 98.4L123.1 80.5L124.2 76.3L126.6 70.7L126.0 69.5L123.5 69.5L122.2 67.8L122.7 66.3L123.2 63.1L127.7 57.6L129.5 56.5L130.6 55.4L132.1 51.8L136.1 46.1L139.7 42.2L139.9 38.7L136.6 36.2L135.4 31.7L122.2 28.0L107.1 24.5L91.7 24.6L91.2 23.2L85.7 25.3L81.2 24.7L78.8 23.1L77.5 23.8L72.8 23.6L71.1 22.2L65.8 20.1L65.0 20.2L60.7 18.7L58.8 20.5L52.6 20.2L46.7 16.1L47.4 15.3L47.6 7.5L45.3 3.6L41.2 3.0L40.5 0.5L38.1 0.0L32.3 2.1L30.0 8.6L26.8 18.6L23.6 25.1L18.6 39.2L12.1 52.8L4.0 65.4L2.1 68.3L1.3 76.9L0.0 82.9L2.7 86.4L9.4 88.7L21.0 92.0L28.9 94.5L41.3 98.1L54.6 101.7L67.8 105.3" />
</svg>