<svg id="pennsylvania" xmlns="http://www.w3.org/2000/svg" preserveAspectRatio="xMinYMin meet" viewBox="0 0 99.5 99.5">
  <path fill="currentColor" transform="translate(0, 17.6)" d="M89.8 47.3L90.9 46.7L93.2 46.1L94.7 43.4L96.3 41.1L99.5 38.0V37.2L97.1 35.6L93.5 33.2L92.5 30.6L89.8 30.3L89.6 29.2L88.8 26.5L91.1 25.4L91.3 23.0L90.0 21.7L90.2 20.1L92.1 17.0V13.9L94.4 11.5L94.6 10.4L92.0 10.2L89.7 8.3L87.3 3.0L84.3 2.1L82.0 0.0L63.4 4.0L20.4 12.7L11.5 14.2L11.0 7.1L5.5 12.7L4.2 13.2L0.0 16.2L2.9 35.3L5.4 45.0L9.0 64.3L12.3 63.7L24.2 62.2L62.1 54.5L77.0 51.7L85.3 50.1L85.6 49.9L87.7 48.3L89.8 47.3Z" />
</svg>