<svg id="south-dakota" xmlns="http://www.w3.org/2000/svg" preserveAspectRatio="xMinYMin meet" viewBox="0 0 121.1 121.1">
  <path fill="currentColor" transform="translate(0, 20.25)" d="M120.5 80.3L119.5 79.2L118.0 75.6L119.8 71.9L120.9 66.3L118.3 64.2L118.0 61.5L118.6 58.5L120.8 57.7L121.1 52.0L121.0 21.9L120.4 18.9L116.3 15.3L115.3 13.3V11.4L117.2 10.1L118.7 8.2L118.9 5.5L61.5 3.9L5.3 0.0L4.5 5.3L2.9 21.2L1.6 39.1L0.0 63.7L16.0 64.7L35.6 65.8L53.6 67.1L77.4 68.4L88.1 67.6L91.0 69.9L95.3 72.9L96.3 73.7L99.8 72.8L103.8 72.5L106.5 72.4L109.6 73.6L114.1 75.0L117.2 76.8L117.8 78.7L118.7 80.6L119.4 80.1L120.5 80.3Z" />
</svg>