<svg id="south-carolina" xmlns="http://www.w3.org/2000/svg" preserveAspectRatio="xMinYMin meet" viewBox="0 0 88.3 88.3">
  <path fill="currentColor" transform="translate(0, 10.649999999999999)" d="M53.2 66.0L51.4 67.0L48.8 65.7L48.2 63.6L46.9 60.0L44.6 57.9L42.0 57.3L40.4 52.5L37.7 46.5L33.5 44.6L31.4 42.7L30.1 40.1L28.0 38.1L25.7 36.8L23.4 33.9L20.3 31.6L15.8 29.8L15.3 28.3L12.9 25.4L12.4 23.9L9.0 18.7L5.6 18.9L1.6 16.5L0.3 15.2L0.0 13.4L0.8 11.5L3.1 10.5L2.8 8.4L8.9 5.8L18.0 1.3L25.3 0.5L41.8 0.0L44.1 1.9L45.7 5.1L50.1 4.6L62.7 3.1L65.6 3.9L78.2 11.5L88.3 19.6L82.9 25.1L80.3 31.2L79.8 37.5L78.2 38.3L77.1 41.0L74.7 41.6L72.6 45.2L69.9 47.9L67.6 51.3L66.0 52.1L62.4 55.5L59.5 55.7L60.5 58.9L55.5 64.4L53.2 66.0Z" />
</svg>