<svg xmlns="http://www.w3.org/2000/svg" preserveAspectRatio="xMinYMin meet" viewBox="0 0 362.9 362.9">
  <path d="M295.8 217.9c-.8-.4-3.4-.4-5.4-.2-.7 0-1.5.4-1.8 1a44.8 44.8 0 0 1-41.2 26H72a44.6 44.6 0 0 1-27.2-9.6c-1.4-1.3-2.9-1.3-3.6-1.3a115 115 0 0 1-20.6-2.5c-1.6-.4-3.9.2-3 2a53 53 0 0 0 45.9 30h192.4c21.1 0 39.4-14.3 48.4-35.3.1-.3.4-.8-.2-1.5-3.4-3.7-7.1-8-8.3-8.6zM123.3 153.7c2.4-5.3 11.5-25.4 20.3-44.2.5-1 .8-3-2.6-4-9.7-2-15.6-3-25.6-4.1a258.4 258.4 0 0 0-33.1-1.9 185 185 0 0 0-31.8 3h-.1l-1 .2c-31 6.2-30.5 16.5-33.4 25-3 9 3.8 16.2 1 25.4-2 6.6-44.3 58.1 12.5 66.6 8.7 1.3 19.5 1.6 33 .3 12.8-1.2 28-3.6 46-7.7l8.7-2c2.5-.7 1.8-2 1.8-2.8-1.3-14.7-1.4-41.3 4.3-53.8z"/>
  <path d="M362.9 175c-.4-1.7-8.4-2.8-15.7-1.3-12.8 2.4-31 13.4-34.8 12.4-.5 0-4 .2-13-6.1-5.5-3.8-11.7-8-19.6-14-5.6-4.2-11.8-8.7-18.4-13a257.9 257.9 0 0 0-36.2-20.7l-2.8-1.3a432 432 0 0 0-29.5-11.3l-1.6-.5c-1-.4-2.8-.9-4.1 1.6-9.9 20-26.5 53.8-27.9 58.1a91.1 91.1 0 0 0-2.3 21.3c0 .6 0 2.1 2.2 1.6a424.1 424.1 0 0 1 60.2-5.8c14-.4 26.1 0 36.6 1a223 223 0 0 1 30 4.6c7 1.6 13 1.8 15.2 4.4 0 0 32 42.6 41.2 48 1.2.6 2.3.4 2.5.3 4.8-1.3-18.8-55.4-17.5-57.3 1.1-1.6 36.5-16.7 35.5-22z"/>
</svg>