<svg id="west-virginia" xmlns="http://www.w3.org/2000/svg" preserveAspectRatio="xMinYMin meet" viewBox="0 0 78.6 78.6">
  <path fill="currentColor" transform="translate(0.3499999999999943, 0)" d="M46.7 18.0L47.8 22.9L48.9 29.8L52.5 27.1L54.8 24.0L57.3 23.4L58.8 21.9L60.6 19.3L61.8 19.9L64.7 19.6L67.3 17.5L69.3 16.0L71.1 15.5L72.4 16.5L74.6 17.6L76.5 19.4L77.9 20.7L77.8 25.4L72.1 22.3L67.6 20.5L67.4 25.8L66.9 27.9L65.3 30.6L64.7 32.2L61.6 34.6L61.1 36.9L57.7 37.2L57.4 40.3L56.3 45.8H53.7L52.4 45.0L50.8 42.3L49.0 42.5L48.7 46.9L46.6 53.5L41.6 64.3L42.4 65.6L42.2 68.3L40.1 70.2L38.6 69.9L35.4 72.3L32.8 71.3L31.0 76.0L28.6 78.3L26.0 78.9L23.1 78.1L21.8 76.8L19.6 73.8L16.5 71.8L13.9 69.1L11.0 65.4L10.4 63.1L7.8 61.6L7.0 60.0L6.8 54.7L9.0 54.6L10.9 53.8L11.1 51.1L12.7 49.6L12.9 44.6L13.9 40.7L15.2 40.1L16.5 41.2L17.0 43.0L18.8 42.0L19.3 40.4L18.2 38.6V36.2L19.2 34.9L21.5 31.5L22.8 30.0L24.9 30.5L27.2 28.9L30.3 25.5L32.6 21.6L32.9 15.9L33.4 10.9V6.2L32.3 3.1L33.3 1.6L34.6 0.3L38.1 20.1L42.7 19.3L46.7 18.0Z" />
</svg>