<svg xmlns="http://www.w3.org/2000/svg" xmlns:xlink="http://www.w3.org/1999/xlink" version="1.1" class="icon" viewBox="0 0 80 80" fill="currentColor"><path transform="translate(-10,-10)" d="M16.344,39.575c-3.078-0.614-5.08-3.647-4.453-6.759  c0.623-3.115,3.634-5.137,6.715-4.517c3.087,0.62,5.077,3.637,4.453,6.759C22.439,38.167,19.431,40.191,16.344,39.575"/><path transform="translate(-10,-10)" d="M66.916,26.612c-3.62-0.722-5.976-4.29-5.239-7.951  c0.733-3.665,4.275-6.043,7.899-5.313c3.631,0.729,5.972,4.279,5.239,7.951C74.085,24.956,70.547,27.338,66.916,26.612"/><path transform="translate(-10,-10)" d="M91.337,83.88c0.818-0.226,1.564-0.635,2.222-1.272c1.018-0.992,1.53-2.22,1.53-3.692V41.528  c0-0.836-0.287-1.533-0.858-2.115L81.112,26.328c-0.894-0.952-1.98-1.435-3.259-1.435c-1.266,0-3.27,0.737-4.182,2.809L68.412,40.99  l-2.21-0.93l-0.026-6.489l-20.013,0.076l0.083,21.008l20.013-0.076l-0.029-7.282l2.732,1.151c0.413,0.174,0.853,0.261,1.292,0.261  c0.439,0,0.877-0.086,1.289-0.259c0.825-0.347,1.477-1.012,1.807-1.844l2.955-7.465l8.344,9.662v30.114  c0,1.472,0.509,2.699,1.533,3.692c0.658,0.637,1.418,1.045,2.262,1.272H36.022c1.018-1.135,1.532-2.481,1.532-4.05v-8.596h6.102  l0.1-19.829c0-2.171-0.658-4.086-1.981-5.746c-1.323-1.66-2.967-2.76-4.935-3.305l-6.08-18.406  c-1.218-2.779-3.323-4.168-6.307-4.168H0.87v5.484h22.373c0.879,0,1.49,0.442,1.83,1.321l5.064,15.363H0.87v9.89h11.597v8.079H0.87  v11.318h24.583v8.596c0,1.569,0.515,2.915,1.532,4.05H0.87v3.435h98.541V83.88H91.337z M48.813,52.068L48.75,36.213l14.86-0.056  l0.011,2.816l-1.181-0.497c-1.699-0.714-3.647,0.082-4.361,1.776c-0.714,1.695,0.081,3.647,1.776,4.361l3.795,1.598l0.023,5.802  L48.813,52.068z M28.804,60.511c-2.795,0-5.06-2.265-5.06-5.06c0-2.795,2.265-5.06,5.06-5.06c2.795,0,5.06,2.265,5.06,5.06  C33.864,58.246,31.599,60.511,28.804,60.511z"/></svg>