<svg xmlns="http://www.w3.org/2000/svg" class="icon" width="682.7" height="682.7" viewbox="0 0 512 512">
  <path fill="currentColor" d="M330.7 605.6C87 575.8 74.5 223.3 315.6 180.3c17.2-3.1 16.5-2.6 10.9-7.4-21.5-18.1-13-43.3 20.8-62 15.9-8.7 17.8-10.3 19.7-17.5 2.8-10.4 13.3-13.8 20.4-6.7 11 10.9-1 31.1-26.4 44.6-27.4 14.6-28 19.4-3.9 32.6 5.8 3.1 13.3 7.6 16.7 9.8 4 2.8 10.5 5 19.3 6.6 265.8 49.8 205.9 458-62.4 425.3zm60.8-27.3c148.5-29.3 204.2-213.5 97.1-321-31.3-31.3-99-64-99-47.8 0 8.8-11.4 19.8-32.5 31.3-13 7-17.3 10.9-17.3 15.2 0 11.6-19.2 16.5-23.3 6-5.5-14.6 4.1-28.6 29.1-42.6 48.4-26.9-23.6-24.9-77.6 2.2-195.8 98.3-91.7 399 123.5 356.7zM332 533.2c-58.3-7.3-135.2-76.1-111.5-99.8 7.5-7.6 15.8-3 23.8 13 39.4 78.8 154.8 84.5 203 10 12.2-18.7 17.8-21.6 26.2-13.2 6.2 6.2 3.5 15-10.3 33.3A144.9 144.9 0 0 1 332 533.2zm-73-154c-30-14-25.4-58 6.8-65a34.8 34.8 0 0 1 40.5 44 35.5 35.5 0 0 1-47.4 21zm155.5.8a34.7 34.7 0 0 1-2.2-62.8c30-15.2 61.3 16.9 45.6 47a35.3 35.3 0 0 1-43.4 15.8zm248 218-4-3.1-.4-62.2-.4-62.3-9.8-1c-27.8-2.7-49.8-22-49.8-43.7 0-12.9 18.4-176.4 20.5-182.2 4.8-13 22.4-28 50.8-43.4l13.3-7.1V592.3l-4.4 4.4c-5.3 5.2-10.3 5.6-15.8 1.3zM658 341c.3-68.9 0-104-1.1-104a54 54 0 0 0-15 13.6c-3.7 6.7-20.3 178-17.7 182 4.9 7.4 17.3 13.1 27.4 12.5l6-.3zM55 594.3l-3.7-3.7V332.2h-7c-16.6 0-30-8.7-38.3-24.8L.6 297l-.5-43.8c-.5-53.5.2-57 12.6-57 10.7 0 11 1.5 11.6 51.4.7 61.5 0 60.4 40 60.5H89l5.3-4.7c7.7-6.8 8.4-11.1 8.4-57.7v-42l3.7-3.7c5-5 11.8-5 16.8 0l3.9 3.9-.5 47.2c-.5 44.2-.7 47.6-3.7 54A43.8 43.8 0 0 1 86.4 332l-10.2 1-.4 129-.4 129.1-3.3 3.5c-4.5 4.8-12.3 4.7-17.2-.2zm1-310.2-4.7-4.6v-46.3c0-47.1.4-50.5 6-54.7 4-3 10.5-2.3 14.5 1.7l3.7 3.7v48.3c0 53.6 0 53.6-10.1 55.5-4.1.8-5.6.2-9.5-3.6z" />
</svg>