<?xml version="1.0" encoding="utf-8"?>
<!-- Svg Vector Icons : http://www.onlinewebfonts.com/icon -->
<!-- Licensed CC BY 4.0 -->
<svg xmlns="http://www.w3.org/2000/svg" class=icon viewBox="0 0 256 256" ><path fill="currentColor" d="M246,173.8c0,39.9-32.3,72.2-72.2,72.2c-22.8,0-43.1-10.6-56.3-27c-0.7-0.6-1.4-1.2-2.1-1.9c-0.5-0.5-53.2,0-53.2,0H10v-61.4V10l207.1,0c0,0,0.2,102,0,106.1C234.6,129.3,246,150.2,246,173.8z M173.8,115.1c-32.4,0-58.7,26.3-58.7,58.7c0,32.4,26.3,58.7,58.7,58.7c32.4,0,58.7-26.3,58.7-58.7C232.4,141.4,206.2,115.1,173.8,115.1z M202,24.6H25.1l-0.8,177.6c0,0,35.6-0.7,55.2-0.7c0,0-0.8,1.2,26.8,1.1c0.2,0,0.9,0.5,1.8,1.2c-4.2-9.2-6.6-19.4-6.6-30.1c0-2,0.1-4,0.3-6l-0.3,1.2l-63.7-0.6v-19.2l67.9,0.5c2.5-7.2,6.1-13.8,10.6-19.7l-5.2,5.2l-73.3,0.9V117l92.6-1l-0.4,0.4c7.6-5.8,16.3-10.1,25.7-12.5H37.8V84.7h150.3V103c5,1,9.9,2.6,14.5,4.6L202,24.6z M132.9,175.1l12.8-12.7l17.8,17.8l38.3-38.2l12.8,12.7l-51,51L132.9,175.1z"/></svg>