<?xml version="1.0" encoding="utf-8"?>
<!-- Svg Vector Icons : http://www.onlinewebfonts.com/icon -->
<svg xmlns="http://www.w3.org/2000/svg" class="icon" viewBox="0 0 256 256" ><path fill="currentColor" d="M132,10.2c-2.6,0.6-4.8,2.3-5.9,4.5c-0.7,1.5-1.1,3.8-1.4,9.1c-0.5,6.6-0.5,7.3,0.3,9.2c2.3,5.2,8.5,6.9,13.2,3.5c2.3-1.7,3.1-3.8,3.7-11.5c0.6-8.1,0.3-10-2-12.3C137.4,10.4,134.9,9.6,132,10.2z"/><path fill="currentColor" d="M71.7,30.3c-3.4,1.5-5,4.1-5,7.8c0,2.9,1,4.6,5.8,10c5.2,5.8,6.8,6.9,10,6.9c6.1,0,10.3-6.2,8-11.7c-1.1-2.4-9.2-11.5-11.4-12.7C76.6,29.2,74.3,29.1,71.7,30.3z"/><path fill="currentColor" d="M185.2,38.4c-2.7,1.5-11,9-12.2,10.9c-4,6.9,3.4,15.1,10.6,11.8c3-1.3,11.5-8.8,12.8-11.2c3.1-5.7-1-12.4-7.7-12.4C187.6,37.5,186,37.9,185.2,38.4z"/><path fill="currentColor" d="M118.6,53.5c-18.4,4.2-32.2,18-35.8,35.9c-0.7,3.4-1.2,14.5-0.6,15c0.1,0.1,1.9-0.3,4-1c2.1-0.7,5.3-1.4,7.1-1.7l3.4-0.6l0.1-3.5c0.2-8,3.1-14.7,9-20.7c6.5-6.5,13.2-9.4,22-9.5c2.6,0,6,0.2,7.4,0.6c6.3,1.6,13.5,6,17.3,10.7c3.8,4.7,7.1,13.3,7.1,18.4v1.6h2.5c1.3,0,4.6,0.4,7,1c2.5,0.5,4.7,1,5,1c0.7,0-0.1-8.4-1.2-12.8c-2-8.5-6.4-16.1-12.8-22.2c-4.6-4.4-7.2-6.2-12.3-8.6c-6.8-3.2-10.1-3.9-18.8-4.1C123.9,53,120.7,53.1,118.6,53.5z"/><path fill="currentColor" d="M43.9,85.3c-4.8,2.7-6.4,8.2-3.5,12.5c2.2,3.2,6.8,4.4,17.3,4.5c5.7,0,9-2.6,9.3-7.5c0.3-3.3-0.1-4.6-1.9-6.7c-2-2.3-4.8-3-13.1-3.4C46.4,84.5,45.1,84.6,43.9,85.3z"/><path fill="currentColor" d="M193.3,96c-2.4,1.2-3.7,3-4.4,5.7c-0.7,3.3,0.3,6.2,2.8,8.4c2,1.7,4,2.1,11.5,2.5c7.5,0.4,9.3,0,11.4-2.4c2.7-3.2,3.1-7.1,0.9-10.3c-2.3-3.5-4.1-4.1-14-4.6C195.8,95,195.2,95,193.3,96z"/><path fill="currentColor" d="M106.8,112.2l-1.8,0.2v13.6c0,14.5,0,14.7-2.4,14.7c-2.8,0-2.9-0.5-2.9-15v-13.3l-2.7,0.3c-1.5,0.2-2.9,0.4-3.1,0.6c-0.4,0.4-1.3,19.5-1.3,28.4c0,5.9,0.1,7.5,1,9.6c1,2.7,3.7,5.7,7.7,8.5c3.6,2.5,3.5,2.2,2.6,16.2c-1.3,21.9-1.7,31.7-1.9,48.1c-0.1,15.4,0,16.1,0.9,17.7c1.4,2.3,3.7,3.5,6.6,3.2c1.2-0.1,2.7-0.5,3.3-0.9c1.4-0.9,2.7-3.5,3.1-6.4c0.4-2.9-0.4-27.4-1.7-52c-0.5-9.9-1-19.2-1-20.8v-2.7l2.7-2.1c6.4-4.7,7.8-6.6,8.8-11.2c0.6-2.4-0.3-35.1-0.9-35.7c-0.1-0.2-1.6-0.5-3.3-0.6l-3-0.3v13.6c0,12.6,0,13.7-0.9,14.4c-1.2,1.1-2.3,1-3.5-0.1c-0.9-0.9-1-1.6-1-14.4c0-12.5,0-13.4-0.8-13.4c-0.5,0-1.3-0.1-1.8-0.2C109,112,107.8,112.1,106.8,112.2z"/><path fill="currentColor" d="M146.7,172.4c0,40.7,0.2,61.8,0.5,64.3c0.9,6.4,2.7,9.3,5.8,9.3c5.3,0,7.2-5.6,7.3-21.3c0-8.4-0.1-10.4-1.3-17c-0.7-4.1-1.2-8.2-1.1-9.3c0.3-2.3,1.7-3.9,5.2-5.7c3.8-1.9,5.9-3.9,6.9-6.5c0.7-1.9,0.8-3.3,0.5-10.4c-1-27.6-6.6-50.6-14.4-59.1c-2.4-2.7-6.2-4.9-8.3-4.9h-1.1L146.7,172.4L146.7,172.4z"/></svg>