<!-- Svg Vector Icons : http://www.onlinewebfonts.com/icon -->
<svg xmlns="http://www.w3.org/2000/svg" class="icon" viewBox="0 0 256 256"><path fill="currentColor" d="M154.9,231.6V127.2l73.4-73.4h-70.8l14.6-37.9h41.7V10h-45.7l-16.8,43.7H59.5l16.2-3.2l0-0.5c-0.3-5.2-2.6-10-6.5-13.5c-3.9-3.5-8.9-5.2-14.2-4.9c-1.9,0.1-3.7,0.5-5.5,1.1C41.3,35.7,36,43.7,36.5,52.3c0.6,10.8,9.9,19,20.7,18.4l0.5,0l0.5-8.2l64.7,64.7v104.5c-17.4,2.6-21.1,4.8-21.5,5.1l-1.3,0.9v8.4h77.7v-8.4l-1.3-0.9C176,236.5,172.3,234.3,154.9,231.6z M57.9,52.8l-0.3,0.1l0,0.3c-0.4,0.3-0.9,0.6-1.4,0.6h-0.4c-0.6,0-1.2-0.2-1.6-0.6c-0.5-0.5-0.8-1.1-0.9-1.8c-0.1-1.2,0.6-2.2,1.7-2.6c0.2-0.1,0.5-0.1,0.7-0.2c1.4-0.1,2.7,1,2.7,2.4C58.5,51.7,58.3,52.3,57.9,52.8z M170.5,94.2h-5.2V89h5.2V94.2z M121.9,100h-3.3v-3.2h3.3V100z M93.3,89.3L63.5,59.6h85.5l-11.7,30.3C119.1,97.8,101.5,92.7,93.3,89.3z M134.9,107.1h-3.3v-3.2h3.3V107.1z M152.3,99.3h-5.2v-5.2h5.2V99.3z M145.2,86l10.1-26.4h59l-26.6,26.6c-4.5-2.8-17.7-9.2-35.4-3.2h7.8v7.8h-7.8v-7.8C150,83.7,147.6,84.7,145.2,86z"/><path fill="currentColor" d="M34.5,52.5c-0.7-11.8,8.4-22.1,20.3-22.8C66.7,29,76.9,38.1,77.6,50l6.8-0.4c-0.9-15.6-14.4-27.6-30-26.7c-15.6,0.9-27.6,14.4-26.7,30.1c0.9,15.6,14.4,27.6,30,26.7l-0.4-6.9C45.5,73.5,35.3,64.4,34.5,52.5z"/></svg>