<svg xmlns="http://www.w3.org/2000/svg" class="icon" viewBox="0 0 256 256"><path fill="currentColor" d="M10,136.7l31,104.9h173.8l31-104.9H10z M68.3,223.8c-0.2,0.1-0.4,0.1-0.7,0.1c-1,0-1.9-0.7-2.2-1.6l-19.7-65.5c-0.4-1.2,0.3-2.5,1.5-2.9c1.2-0.4,2.5,0.3,2.9,1.5L69.8,221C70.2,222.2,69.5,223.4,68.3,223.8z M100.9,223.8c-0.1,0-0.3,0-0.5,0c-1.1,0-2-0.7-2.2-1.9l-13.1-65.5c-0.2-1.3,0.6-2.5,1.8-2.7c1.2-0.3,2.5,0.6,2.7,1.8l13.1,65.5C102.9,222.4,102.1,223.6,100.9,223.8z M128.9,221.6c0,1.3-1,2.3-2.3,2.3c-1.3,0-2.3-1-2.3-2.3v-65.5c0-1.3,1-2.3,2.3-2.3c1.3,0,2.3,1,2.3,2.3V221.6z M155.1,222.1c-0.2,1.1-1.2,1.9-2.2,1.9c-0.1,0-0.3,0-0.5,0c-1.3-0.2-2-1.4-1.8-2.7l13.1-65.5c0.2-1.3,1.5-2.1,2.7-1.8c1.3,0.2,2,1.4,1.8,2.7L155.1,222.1z M207.5,156.7l-19.7,65.5c-0.3,1-1.2,1.6-2.2,1.6c-0.2,0-0.4,0-0.7-0.1c-1.2-0.4-1.9-1.6-1.5-2.9l19.7-65.5c0.4-1.2,1.7-1.9,2.9-1.5C207.2,154.2,207.9,155.5,207.5,156.7z"/><path fill="currentColor" d="M163.5,39.2C156.1,28,137,11.1,112.8,15.1c24.7,15.6,19.6,21.2-11.4,20.3C78.2,34.8,78.8,46.9,80.5,53C86.4,56.8,123.3,73.4,163.5,39.2z"/><path fill="currentColor" d="M53.8,84.3c0.8,0.4,82.1,38.2,133.2-18.3l6.8-7.2c2.1-5.3,2.7-12-3.6-17c-6.7-5.3-16.1-4.9-19-3.3c-23.5,21-59.6,37.2-95.6,16.8c-8.2-1-22.3-1.1-27.6,8.8c-3.4,6.3-1.8,13.1,1.2,17.9L53.8,84.3z"/><path fill="currentColor" d="M230.8,132.1c15.1-8.6,20.2-25.4,9.5-35.8c-9-8.7-20.7-7.1-28.1-4.9c-2.1,1.9-25.7,27.3-73.8,40.7H230.8z"/><path fill="currentColor" d="M25.8,132.1h91.4c61.1-11.2,91.6-44.3,95.4-48.1c3.9-6.4,6.8-14.3,1.7-19.2c-5.6-5.3-15.2-3.4-18.8-1.1c-25.4,29.4-56.5,38-81.7,38c-40.3,0-66.6-15.5-66.6-15.5c-8.9,0.1-25.7,2.1-31,15.7C12.2,113.3,14.4,124.7,25.8,132.1z"/>
</svg>