<!-- Svg Vector Icons : http://www.onlinewebfonts.com/icon -->
<svg xmlns="http://www.w3.org/2000/svg" class="icon" viewBox="0 0 256 256"><path fill="currentColor" d="M181.6,67.2l-106,0c-8.1,0-13.6,5.1-16.2,8.1L35,107.7h186.7l-24.3-32.5C194.7,72.2,189.2,67.1,181.6,67.2z"/><path fill="currentColor" d="M230.1,119.8c-0.5,0-0.9,0-1.4,0H27.8h-0.5c-4.6,0-8.9,1.2-12,3.2c-3.3,2-5.3,4.9-5.3,8.1v0.4c0,6.2,7.8,11.3,17.3,11.3h4.8l35.4,41.2c2.6,3,7.6,4.9,12.9,4.9h97.2c5.3,0,10.3-1.9,12.9-4.9l35.4-41.2h2.9c9.6,0,17.3-5.1,17.3-11.3v-0.4c0-3.2-2.1-6.1-5.3-8.2C237.9,121.2,234.2,120,230.1,119.8z M150.8,153.2c-0.3,0.4-0.9,0.6-1.6,0.6h-42.3c-0.7,0-1.3-0.2-1.6-0.6l-8.5-10.5l-3.1-3.8c-0.2-0.3,0.1-0.6,0.6-0.6h67.4c0.5,0,0.8,0.3,0.6,0.6l-3.1,3.8L150.8,153.2z"/></svg>